bezy-grotesk-regular.ufo
<glyph name="zero" format="2">
  <advance width="680"/>
  <unicode hex="0030"/>
  <outline>
    <contour>
      <point x="340" y="-16" type="curve" smooth="yes"/>
      <point x="500" y="-16"/>
      <point x="616" y="76"/>
      <point x="616" y="384" type="curve" smooth="yes"/>
      <point x="616" y="676"/>
      <point x="500" y="784"/>
      <point x="340" y="784" type="curve" smooth="yes"/>
      <point x="180" y="784"/>
      <point x="64" y="676"/>
      <point x="64" y="384" type="curve" smooth="yes"/>
      <point x="64" y="76"/>
      <point x="180" y="-16"/>
    </contour>
    <contour>
      <point x="340" y="76" type="curve" smooth="yes"/>
      <point x="236" y="76"/>
      <point x="172" y="156"/>
      <point x="172" y="384" type="curve" smooth="yes"/>
      <point x="172" y="596"/>
      <point x="236" y="692"/>
      <point x="340" y="692" type="curve" smooth="yes"/>
      <point x="444" y="692"/>
      <point x="508" y="596"/>
      <point x="508" y="384" type="curve" smooth="yes"/>
      <point x="508" y="156"/>
      <point x="444" y="76"/>
    </contour>
  </outline>
</glyph>
<glyph name="one" format="2">
  <advance width="372"/>
  <unicode hex="0031"/>
  <outline>
    <contour>
      <point x="204" y="0" type="line"/>
      <point x="276" y="0" type="line"/>
      <point x="292" y="16" type="line"/>
      <point x="292" y="752" type="line"/>
      <point x="276" y="768" type="line"/>
      <point x="220" y="768" type="line"/>
      <point x="204" y="752" type="line"/>
      <point x="188" y="668"/>
      <point x="136" y="624"/>
      <point x="48" y="624" type="curve"/>
      <point x="32" y="608" type="line"/>
      <point x="32" y="552" type="line"/>
      <point x="48" y="536" type="line"/>
      <point x="176" y="536" type="line"/>
      <point x="186" y="522" type="line"/>
      <point x="188" y="16" type="line"/>
    </contour>
  </outline>
</glyph>
<glyph name="two" format="2">
  <advance width="608"/>
  <unicode hex="0032"/>
  <outline>
    <contour>
      <point x="56" y="0" type="line"/>
      <point x="552" y="0" type="line"/>
      <point x="568" y="16" type="line"/>
      <point x="568" y="78" type="line"/>
      <point x="552" y="94" type="line"/>
      <point x="168" y="94" type="line"/>
      <point x="160" y="102" type="line"/>
      <point x="160" y="180"/>
      <point x="266" y="238"/>
      <point x="344" y="286" type="curve" smooth="yes"/>
      <point x="476" y="368"/>
      <point x="564" y="432"/>
      <point x="564" y="552" type="curve" smooth="yes"/>
      <point x="564" y="692"/>
      <point x="488" y="784"/>
      <point x="300" y="784" type="curve" smooth="yes"/>
      <point x="144" y="784"/>
      <point x="40" y="692"/>
      <point x="40" y="536" type="curve"/>
      <point x="56" y="520" type="line"/>
      <point x="128" y="520" type="line"/>
      <point x="144" y="536" type="line"/>
      <point x="144" y="632"/>
      <point x="204" y="690"/>
      <point x="300" y="690" type="curve" smooth="yes"/>
      <point x="396" y="690"/>
      <point x="456" y="648"/>
      <point x="456" y="552" type="curve" smooth="yes"/>
      <point x="456" y="468"/>
      <point x="388" y="416"/>
      <point x="262" y="348" type="curve" smooth="yes"/>
      <point x="104" y="262"/>
      <point x="40" y="184"/>
      <point x="40" y="52" type="curve" smooth="yes"/>
      <point x="40" y="16" type="line"/>
    </contour>
  </outline>
</glyph>
<glyph name="three" format="2">
  <advance width="638"/>
  <unicode hex="0033"/>
  <outline>
    <contour>
      <point x="320" y="-16" type="curve" smooth="yes"/>
      <point x="488" y="-16"/>
      <point x="598" y="76"/>
      <point x="598" y="218" type="curve" smooth="yes"/>
      <point x="598" y="312"/>
      <point x="542" y="380"/>
      <point x="458" y="402" type="curve"/>
      <point x="458" y="410" type="line"/>
      <point x="532" y="438"/>
      <point x="576" y="494"/>
      <point x="576" y="576" type="curve" smooth="yes"/>
      <point x="576" y="702"/>
      <point x="474" y="784"/>
      <point x="320" y="784" type="curve" smooth="yes"/>
      <point x="168" y="784"/>
      <point x="68" y="706"/>
      <point x="46" y="574" type="curve"/>
      <point x="46" y="558" type="line"/>
      <point x="62" y="542" type="line"/>
      <point x="138" y="542" type="line"/>
      <point x="154" y="558" type="line"/>
      <point x="164" y="644"/>
      <point x="222" y="692"/>
      <point x="320" y="692" type="curve" smooth="yes"/>
      <point x="418" y="692"/>
      <point x="470" y="652"/>
      <point x="470" y="576" type="curve" smooth="yes"/>
      <point x="470" y="494"/>
      <point x="418" y="444"/>
      <point x="312" y="444" type="curve" smooth="yes"/>
      <point x="256" y="444" type="line"/>
      <point x="240" y="428" type="line"/>
      <point x="240" y="372" type="line"/>
      <point x="256" y="356" type="line"/>
      <point x="322" y="356" type="line" smooth="yes"/>
      <point x="432" y="356"/>
      <point x="490" y="308"/>
      <point x="490" y="218" type="curve" smooth="yes"/>
      <point x="490" y="134"/>
      <point x="422" y="78"/>
      <point x="320" y="78" type="curve" smooth="yes"/>
      <point x="220" y="78"/>
      <point x="160" y="132"/>
      <point x="142" y="224" type="curve"/>
      <point x="126" y="240" type="line"/>
      <point x="56" y="240" type="line"/>
      <point x="40" y="224" type="line"/>
      <point x="40" y="208" type="line"/>
      <point x="60" y="66"/>
      <point x="160" y="-16"/>
    </contour>
  </outline>
</glyph>
<glyph name="four" format="2">
  <advance width="654"/>
  <unicode hex="0034"/>
  <outline>
    <contour>
      <point x="428" y="0" type="line"/>
      <point x="500" y="0" type="line"/>
      <point x="516" y="16" type="line"/>
      <point x="516" y="172" type="line"/>
      <point x="524" y="180" type="line"/>
      <point x="606" y="180" type="line"/>
      <point x="622" y="196" type="line"/>
      <point x="622" y="258" type="line"/>
      <point x="606" y="274" type="line"/>
      <point x="524" y="274" type="line"/>
      <point x="516" y="282" type="line"/>
      <point x="516" y="752" type="line"/>
      <point x="500" y="768" type="line"/>
      <point x="400" y="768" type="line"/>
      <point x="384" y="752" type="line"/>
      <point x="32" y="274" type="line"/>
      <point x="32" y="196" type="line"/>
      <point x="48" y="180" type="line"/>
      <point x="404" y="180" type="line"/>
      <point x="412" y="172" type="line"/>
      <point x="412" y="16" type="line"/>
    </contour>
    <contour>
      <point x="146" y="274" type="line"/>
      <point x="146" y="282" type="line"/>
      <point x="404" y="630" type="line"/>
      <point x="412" y="630" type="line"/>
      <point x="412" y="282" type="line"/>
      <point x="404" y="274" type="line"/>
    </contour>
  </outline>
</glyph>
<glyph name="five" format="2">
  <advance width="624"/>
  <unicode hex="0035"/>
  <outline>
    <contour>
      <point x="304" y="-16" type="curve" smooth="yes"/>
      <point x="468" y="-16"/>
      <point x="584" y="72"/>
      <point x="584" y="260" type="curve" smooth="yes"/>
      <point x="584" y="406"/>
      <point x="488" y="510"/>
      <point x="334" y="510" type="curve" smooth="yes"/>
      <point x="266" y="510"/>
      <point x="214" y="484"/>
      <point x="186" y="452" type="curve"/>
      <point x="178" y="452" type="line"/>
      <point x="210" y="668" type="line"/>
      <point x="218" y="676" type="line"/>
      <point x="540" y="676" type="line"/>
      <point x="556" y="692" type="line"/>
      <point x="556" y="752" type="line"/>
      <point x="540" y="768" type="line"/>
      <point x="142" y="768" type="line"/>
      <point x="126" y="752" type="line"/>
      <point x="68" y="376" type="line"/>
      <point x="68" y="360" type="line"/>
      <point x="84" y="344" type="line"/>
      <point x="158" y="344" type="line"/>
      <point x="194" y="392"/>
      <point x="244" y="422"/>
      <point x="314" y="422" type="curve" smooth="yes"/>
      <point x="414" y="422"/>
      <point x="480" y="358"/>
      <point x="480" y="260" type="curve" smooth="yes"/>
      <point x="480" y="164"/>
      <point x="430" y="76"/>
      <point x="304" y="76" type="curve" smooth="yes"/>
      <point x="214" y="76"/>
      <point x="162" y="124"/>
      <point x="148" y="196" type="curve"/>
      <point x="132" y="212" type="line"/>
      <point x="56" y="212" type="line"/>
      <point x="40" y="196" type="line"/>
      <point x="40" y="100"/>
      <point x="132" y="-16"/>
    </contour>
  </outline>
</glyph>
<glyph name="six" format="2">
  <advance width="632"/>
  <unicode hex="0036"/>
  <outline>
    <contour>
      <point x="316" y="-16" type="curve" smooth="yes"/>
      <point x="484" y="-16"/>
      <point x="592" y="76"/>
      <point x="592" y="248" type="curve" smooth="yes"/>
      <point x="592" y="392"/>
      <point x="488" y="488"/>
      <point x="348" y="488" type="curve" smooth="yes"/>
      <point x="264" y="488"/>
      <point x="208" y="456"/>
      <point x="176" y="424" type="curve"/>
      <point x="160" y="424" type="line"/>
      <point x="160" y="540"/>
      <point x="212" y="684"/>
      <point x="324" y="684" type="curve" smooth="yes"/>
      <point x="412" y="684"/>
      <point x="448" y="656"/>
      <point x="460" y="584" type="curve"/>
      <point x="476" y="568" type="line"/>
      <point x="556" y="568" type="line"/>
      <point x="572" y="584" type="line"/>
      <point x="560" y="712"/>
      <point x="468" y="784"/>
      <point x="324" y="784" type="curve" smooth="yes"/>
      <point x="156" y="784"/>
      <point x="40" y="676"/>
      <point x="40" y="356" type="curve" smooth="yes"/>
      <point x="40" y="48"/>
      <point x="152" y="-16"/>
    </contour>
    <contour>
      <point x="316" y="84" type="curve" smooth="yes"/>
      <point x="244" y="84"/>
      <point x="164" y="132"/>
      <point x="164" y="248" type="curve" smooth="yes"/>
      <point x="164" y="332"/>
      <point x="224" y="392"/>
      <point x="320" y="392" type="curve" smooth="yes"/>
      <point x="428" y="392"/>
      <point x="476" y="332"/>
      <point x="476" y="248" type="curve" smooth="yes"/>
      <point x="476" y="132"/>
      <point x="428" y="84"/>
    </contour>
  </outline>
</glyph>
<glyph name="seven" format="2">
  <advance width="596"/>
  <unicode hex="0037"/>
  <outline>
    <contour>
      <point x="176" y="0" type="line"/>
      <point x="260" y="0" type="line"/>
      <point x="276" y="16" type="line"/>
      <point x="276" y="304"/>
      <point x="372" y="512"/>
      <point x="564" y="656" type="curve"/>
      <point x="580" y="672" type="line"/>
      <point x="580" y="752" type="line"/>
      <point x="564" y="768" type="line"/>
      <point x="32" y="768" type="line"/>
      <point x="16" y="752" type="line"/>
      <point x="16" y="688" type="line"/>
      <point x="32" y="672" type="line"/>
      <point x="436" y="672" type="line"/>
      <point x="436" y="656" type="line"/>
      <point x="252" y="508"/>
      <point x="160" y="304"/>
      <point x="160" y="16" type="curve"/>
    </contour>
  </outline>
</glyph>
<glyph name="eight" format="2">
  <advance width="692"/>
  <unicode hex="0038"/>
  <outline>
    <contour>
      <point x="344" y="-16" type="curve" smooth="yes"/>
      <point x="528" y="-16"/>
      <point x="652" y="68"/>
      <point x="652" y="220" type="curve" smooth="yes"/>
      <point x="652" y="324"/>
      <point x="576" y="388"/>
      <point x="504" y="404" type="curve"/>
      <point x="504" y="420" type="line"/>
      <point x="540" y="440"/>
      <point x="604" y="480"/>
      <point x="604" y="572" type="curve" smooth="yes"/>
      <point x="604" y="676"/>
      <point x="516" y="784"/>
      <point x="344" y="784" type="curve" smooth="yes"/>
      <point x="172" y="784"/>
      <point x="84" y="676"/>
      <point x="84" y="572" type="curve" smooth="yes"/>
      <point x="84" y="480"/>
      <point x="152" y="440"/>
      <point x="184" y="420" type="curve"/>
      <point x="184" y="404" type="line"/>
      <point x="128" y="388"/>
      <point x="40" y="324"/>
      <point x="40" y="220" type="curve" smooth="yes"/>
      <point x="40" y="68"/>
      <point x="160" y="-16"/>
    </contour>
    <contour>
      <point x="344" y="452" type="curve" smooth="yes"/>
      <point x="252" y="452"/>
      <point x="200" y="504"/>
      <point x="200" y="572" type="curve" smooth="yes"/>
      <point x="200" y="620"/>
      <point x="240" y="684"/>
      <point x="344" y="684" type="curve" smooth="yes"/>
      <point x="448" y="684"/>
      <point x="488" y="620"/>
      <point x="488" y="572" type="curve" smooth="yes"/>
      <point x="488" y="504"/>
      <point x="436" y="452"/>
    </contour>
    <contour>
      <point x="344" y="84" type="curve" smooth="yes"/>
      <point x="232" y="84"/>
      <point x="156" y="124"/>
      <point x="156" y="220" type="curve" smooth="yes"/>
      <point x="156" y="292"/>
      <point x="232" y="360"/>
      <point x="344" y="360" type="curve" smooth="yes"/>
      <point x="460" y="360"/>
      <point x="536" y="292"/>
      <point x="536" y="220" type="curve" smooth="yes"/>
      <point x="536" y="124"/>
      <point x="460" y="84"/>
    </contour>
  </outline>
</glyph>
<glyph name="nine" format="2">
  <advance width="616"/>
  <unicode hex="0039"/>
  <outline>
    <contour>
      <point x="300" y="784" type="curve" smooth="yes"/>
      <point x="132" y="784"/>
      <point x="24" y="676"/>
      <point x="24" y="504" type="curve" smooth="yes"/>
      <point x="24" y="344"/>
      <point x="128" y="248"/>
      <point x="268" y="248" type="curve" smooth="yes"/>
      <point x="352" y="248"/>
      <point x="408" y="280"/>
      <point x="440" y="312" type="curve"/>
      <point x="456" y="312" type="line"/>
      <point x="460" y="164"/>
      <point x="404" y="84"/>
      <point x="292" y="84" type="curve" smooth="yes"/>
      <point x="204" y="84"/>
      <point x="168" y="112"/>
      <point x="156" y="184" type="curve"/>
      <point x="140" y="200" type="line"/>
      <point x="60" y="200" type="line"/>
      <point x="44" y="184" type="line"/>
      <point x="56" y="56"/>
      <point x="148" y="-16"/>
      <point x="292" y="-16" type="curve" smooth="yes"/>
      <point x="460" y="-16"/>
      <point x="576" y="60"/>
      <point x="576" y="380" type="curve" smooth="yes"/>
      <point x="576" y="688"/>
      <point x="464" y="784"/>
    </contour>
    <contour>
      <point x="300" y="684" type="curve" smooth="yes"/>
      <point x="372" y="684"/>
      <point x="452" y="620"/>
      <point x="452" y="504" type="curve" smooth="yes"/>
      <point x="452" y="404"/>
      <point x="392" y="344"/>
      <point x="296" y="344" type="curve" smooth="yes"/>
      <point x="188" y="344"/>
      <point x="140" y="404"/>
      <point x="140" y="504" type="curve" smooth="yes"/>
      <point x="140" y="620"/>
      <point x="188" y="684"/>
    </contour>
  </outline>
</glyph>
<glyph name="A" format="2">
  <advance width="712"/>
  <unicode hex="0041"/>
  <outline>
    <contour>
      <point x="48" y="0" type="line"/>
      <point x="104" y="0" type="line"/>
      <point x="120" y="16" type="line"/>
      <point x="196" y="224" type="line"/>
      <point x="204" y="232" type="line"/>
      <point x="508" y="232" type="line"/>
      <point x="516" y="224" type="line"/>
      <point x="592" y="16" type="line"/>
      <point x="608" y="0" type="line"/>
      <point x="664" y="0" type="line"/>
      <point x="680" y="16" type="line"/>
      <point x="680" y="64" type="line"/>
      <point x="420" y="752" type="line"/>
      <point x="404" y="768" type="line"/>
      <point x="308" y="768" type="line"/>
      <point x="292" y="752" type="line"/>
      <point x="32" y="64" type="line"/>
      <point x="32" y="16" type="line"/>
    </contour>
    <contour>
      <point x="240" y="320" type="line"/>
      <point x="232" y="328" type="line"/>
      <point x="352" y="672" type="line"/>
      <point x="360" y="672" type="line"/>
      <point x="480" y="328" type="line"/>
      <point x="472" y="320" type="line"/>
    </contour>
  </outline>
</glyph>
<glyph name="B" format="2">
  <advance width="732"/>
  <unicode hex="0042"/>
  <outline>
    <contour>
      <point x="96" y="0" type="line"/>
      <point x="448" y="0" type="line" smooth="yes"/>
      <point x="596" y="0"/>
      <point x="684" y="74"/>
      <point x="684" y="222" type="curve" smooth="yes"/>
      <point x="684" y="320"/>
      <point x="606" y="388"/>
      <point x="520" y="398" type="curve"/>
      <point x="520" y="406" type="line"/>
      <point x="584" y="422"/>
      <point x="644" y="490"/>
      <point x="644" y="560" type="curve" smooth="yes"/>
      <point x="644" y="696"/>
      <point x="560" y="768"/>
      <point x="408" y="768" type="curve" smooth="yes"/>
      <point x="96" y="768" type="line"/>
      <point x="80" y="752" type="line"/>
      <point x="80" y="16" type="line"/>
    </contour>
    <contour>
      <point x="192" y="438" type="line"/>
      <point x="184" y="446" type="line"/>
      <point x="184" y="670" type="line"/>
      <point x="192" y="678" type="line"/>
      <point x="400" y="678" type="line" smooth="yes"/>
      <point x="480" y="678"/>
      <point x="536" y="640"/>
      <point x="536" y="560" type="curve" smooth="yes"/>
      <point x="536" y="480"/>
      <point x="480" y="438"/>
      <point x="400" y="438" type="curve" smooth="yes"/>
    </contour>
    <contour>
      <point x="192" y="94" type="line"/>
      <point x="184" y="102" type="line"/>
      <point x="184" y="342" type="line"/>
      <point x="192" y="350" type="line"/>
      <point x="440" y="350" type="line" smooth="yes"/>
      <point x="524" y="350"/>
      <point x="576" y="298"/>
      <point x="576" y="222" type="curve" smooth="yes"/>
      <point x="576" y="146"/>
      <point x="524" y="94"/>
      <point x="440" y="94" type="curve" smooth="yes"/>
    </contour>
  </outline>
</glyph>
<glyph name="C" format="2">
  <advance width="808"/>
  <unicode hex="0043"/>
  <outline>
    <contour>
      <point x="432" y="-16" type="curve" smooth="yes"/>
      <point x="648" y="-16"/>
      <point x="728" y="136"/>
      <point x="752" y="248" type="curve"/>
      <point x="752" y="272" type="line"/>
      <point x="736" y="288" type="line"/>
      <point x="664" y="288" type="line"/>
      <point x="648" y="272" type="line"/>
      <point x="632" y="200"/>
      <point x="580" y="80"/>
      <point x="432" y="80" type="curve" smooth="yes"/>
      <point x="256" y="80"/>
      <point x="164" y="208"/>
      <point x="164" y="384" type="curve" smooth="yes"/>
      <point x="164" y="560"/>
      <point x="248" y="688"/>
      <point x="432" y="688" type="curve" smooth="yes"/>
      <point x="560" y="688"/>
      <point x="632" y="624"/>
      <point x="648" y="552" type="curve"/>
      <point x="664" y="536" type="line"/>
      <point x="736" y="536" type="line"/>
      <point x="752" y="552" type="line"/>
      <point x="752" y="576" type="line"/>
      <point x="728" y="688"/>
      <point x="624" y="784"/>
      <point x="432" y="784" type="curve" smooth="yes"/>
      <point x="200" y="784"/>
      <point x="56" y="624"/>
      <point x="56" y="384" type="curve" smooth="yes"/>
      <point x="56" y="144"/>
      <point x="200" y="-16"/>
    </contour>
  </outline>
</glyph>
<glyph name="D" format="2">
  <advance width="784"/>
  <unicode hex="0044"/>
  <outline>
    <contour>
      <point x="88" y="0" type="line"/>
      <point x="360" y="0" type="line" smooth="yes"/>
      <point x="600" y="0"/>
      <point x="728" y="144"/>
      <point x="728" y="384" type="curve" smooth="yes"/>
      <point x="728" y="624"/>
      <point x="600" y="768"/>
      <point x="360" y="768" type="curve" smooth="yes"/>
      <point x="88" y="768" type="line"/>
      <point x="72" y="752" type="line"/>
      <point x="72" y="16" type="line"/>
    </contour>
    <contour>
      <point x="184" y="88" type="line"/>
      <point x="176" y="96" type="line"/>
      <point x="176" y="672" type="line"/>
      <point x="184" y="680" type="line"/>
      <point x="344" y="680" type="line" smooth="yes"/>
      <point x="560" y="680"/>
      <point x="620" y="560"/>
      <point x="620" y="384" type="curve" smooth="yes"/>
      <point x="620" y="208"/>
      <point x="560" y="88"/>
      <point x="344" y="88" type="curve" smooth="yes"/>
    </contour>
  </outline>
</glyph>
<glyph name="E" format="2">
  <advance width="672"/>
  <unicode hex="0045"/>
  <outline>
    <contour>
      <point x="96" y="0" type="line"/>
      <point x="624" y="0" type="line"/>
      <point x="640" y="16" type="line"/>
      <point x="640" y="76" type="line"/>
      <point x="624" y="92" type="line"/>
      <point x="192" y="92" type="line"/>
      <point x="184" y="100" type="line"/>
      <point x="184" y="342" type="line"/>
      <point x="192" y="350" type="line"/>
      <point x="576" y="350" type="line"/>
      <point x="592" y="366" type="line"/>
      <point x="592" y="422" type="line"/>
      <point x="576" y="438" type="line"/>
      <point x="192" y="438" type="line"/>
      <point x="184" y="446" type="line"/>
      <point x="184" y="670" type="line"/>
      <point x="192" y="678" type="line"/>
      <point x="608" y="678" type="line"/>
      <point x="624" y="694" type="line"/>
      <point x="624" y="752" type="line"/>
      <point x="608" y="768" type="line"/>
      <point x="96" y="768" type="line"/>
      <point x="80" y="752" type="line"/>
      <point x="80" y="16" type="line"/>
    </contour>
  </outline>
</glyph>
<glyph name="F" format="2">
  <advance width="608"/>
  <unicode hex="0046"/>
  <outline>
    <contour>
      <point x="80" y="0" type="line"/>
      <point x="152" y="0" type="line"/>
      <point x="168" y="16" type="line"/>
      <point x="168" y="352" type="line"/>
      <point x="176" y="360" type="line"/>
      <point x="496" y="360" type="line"/>
      <point x="512" y="376" type="line"/>
      <point x="512" y="432" type="line"/>
      <point x="496" y="448" type="line"/>
      <point x="176" y="448" type="line"/>
      <point x="168" y="456" type="line"/>
      <point x="168" y="672" type="line"/>
      <point x="176" y="680" type="line"/>
      <point x="560" y="680" type="line"/>
      <point x="576" y="696" type="line"/>
      <point x="576" y="752" type="line"/>
      <point x="560" y="768" type="line"/>
      <point x="80" y="768" type="line"/>
      <point x="64" y="752" type="line"/>
      <point x="64" y="16" type="line"/>
    </contour>
  </outline>
</glyph>
<glyph name="G" format="2">
  <advance width="824"/>
  <unicode hex="0047"/>
  <outline>
    <contour>
      <point x="416" y="-16" type="curve" smooth="yes"/>
      <point x="492" y="-16"/>
      <point x="608" y="24"/>
      <point x="672" y="120" type="curve"/>
      <point x="680" y="120" type="line"/>
      <point x="688" y="16" type="line"/>
      <point x="704" y="0" type="line"/>
      <point x="744" y="0" type="line"/>
      <point x="760" y="16" type="line"/>
      <point x="760" y="392" type="line"/>
      <point x="744" y="408" type="line"/>
      <point x="448" y="408" type="line"/>
      <point x="432" y="392" type="line"/>
      <point x="432" y="336" type="line"/>
      <point x="448" y="320" type="line"/>
      <point x="656" y="320" type="line"/>
      <point x="664" y="312" type="line"/>
      <point x="664" y="296" type="line" smooth="yes"/>
      <point x="664" y="192"/>
      <point x="564" y="80"/>
      <point x="416" y="80" type="curve" smooth="yes"/>
      <point x="240" y="80"/>
      <point x="148" y="200"/>
      <point x="148" y="384" type="curve" smooth="yes"/>
      <point x="148" y="560"/>
      <point x="232" y="688"/>
      <point x="416" y="688" type="curve" smooth="yes"/>
      <point x="548" y="688"/>
      <point x="604" y="624"/>
      <point x="624" y="576" type="curve"/>
      <point x="640" y="560" type="line"/>
      <point x="712" y="560" type="line"/>
      <point x="728" y="576" type="line"/>
      <point x="728" y="592" type="line" smooth="yes"/>
      <point x="696" y="680"/>
      <point x="612" y="784"/>
      <point x="416" y="784" type="curve" smooth="yes"/>
      <point x="184" y="784"/>
      <point x="40" y="624"/>
      <point x="40" y="384" type="curve" smooth="yes"/>
      <point x="40" y="144"/>
      <point x="184" y="-16"/>
    </contour>
  </outline>
</glyph>
<glyph name="L" format="2">
  <advance width="592"/>
  <unicode hex="004C"/>
  <outline>
    <contour>
      <point x="80" y="0" type="line"/>
      <point x="560" y="0" type="line"/>
      <point x="576" y="16" type="line"/>
      <point x="576" y="76" type="line"/>
      <point x="560" y="92" type="line"/>
      <point x="176" y="92" type="line"/>
      <point x="168" y="100" type="line"/>
      <point x="168" y="752" type="line"/>
      <point x="152" y="768" type="line"/>
      <point x="80" y="768" type="line"/>
      <point x="64" y="752" type="line"/>
      <point x="64" y="16" type="line"/>
    </contour>
  </outline>
</glyph>
<glyph name="M" format="2">
  <advance width="896"/>
  <unicode hex="004D"/>
  <outline>
    <contour>
      <point x="80" y="0" type="line"/>
      <point x="152" y="0" type="line"/>
      <point x="168" y="16" type="line"/>
      <point x="168" y="448" type="line"/>
      <point x="160" y="624" type="line"/>
      <point x="168" y="624" type="line"/>
      <point x="392" y="16" type="line"/>
      <point x="408" y="0" type="line"/>
      <point x="488" y="0" type="line"/>
      <point x="504" y="16" type="line"/>
      <point x="728" y="624" type="line"/>
      <point x="736" y="624" type="line"/>
      <point x="728" y="448" type="line"/>
      <point x="728" y="16" type="line"/>
      <point x="744" y="0" type="line"/>
      <point x="816" y="0" type="line"/>
      <point x="832" y="16" type="line"/>
      <point x="832" y="752" type="line"/>
      <point x="816" y="768" type="line"/>
      <point x="696" y="768" type="line"/>
      <point x="680" y="752" type="line"/>
      <point x="456" y="140" type="line"/>
      <point x="440" y="140" type="line"/>
      <point x="216" y="752" type="line"/>
      <point x="200" y="768" type="line"/>
      <point x="80" y="768" type="line"/>
      <point x="64" y="752" type="line"/>
      <point x="64" y="16" type="line"/>
    </contour>
  </outline>
</glyph>
<glyph name="N" format="2">
  <advance width="736"/>
  <unicode hex="004E"/>
  <outline>
    <contour>
      <point x="80" y="0" type="line"/>
      <point x="152" y="0" type="line"/>
      <point x="168" y="16" type="line"/>
      <point x="168" y="608" type="line"/>
      <point x="176" y="608" type="line"/>
      <point x="536" y="16" type="line"/>
      <point x="552" y="0" type="line"/>
      <point x="656" y="0" type="line"/>
      <point x="672" y="16" type="line"/>
      <point x="672" y="752" type="line"/>
      <point x="656" y="768" type="line"/>
      <point x="584" y="768" type="line"/>
      <point x="568" y="752" type="line"/>
      <point x="568" y="160" type="line"/>
      <point x="560" y="160" type="line"/>
      <point x="200" y="752" type="line"/>
      <point x="184" y="768" type="line"/>
      <point x="80" y="768" type="line"/>
      <point x="64" y="752" type="line"/>
      <point x="64" y="16" type="line"/>
    </contour>
  </outline>
</glyph>
<glyph name="O" format="2">
  <advance width="848"/>
  <unicode hex="004F"/>
  <outline>
    <contour>
      <point x="424" y="-16" type="curve" smooth="yes"/>
      <point x="660" y="-14"/>
      <point x="800" y="148"/>
      <point x="800" y="384" type="curve" smooth="yes"/>
      <point x="800" y="620"/>
      <point x="660" y="784"/>
      <point x="424" y="784" type="curve" smooth="yes"/>
      <point x="188" y="784"/>
      <point x="48" y="620"/>
      <point x="48" y="384" type="curve" smooth="yes"/>
      <point x="48" y="148"/>
      <point x="188" y="-18"/>
    </contour>
    <contour>
      <point x="424" y="80" type="curve" smooth="yes"/>
      <point x="248" y="80"/>
      <point x="156" y="208"/>
      <point x="156" y="384" type="curve" smooth="yes"/>
      <point x="156" y="560"/>
      <point x="248" y="688"/>
      <point x="424" y="688" type="curve" smooth="yes"/>
      <point x="600" y="688"/>
      <point x="692" y="560"/>
      <point x="692" y="384" type="curve" smooth="yes"/>
      <point x="692" y="208"/>
      <point x="600" y="80"/>
    </contour>
  </outline>
</glyph>
<glyph name="P" format="2">
  <advance width="632"/>
  <unicode hex="0050"/>
  <outline>
    <contour>
      <point x="192" y="424" type="line"/>
      <point x="184" y="432" type="line"/>
      <point x="184" y="672" type="line"/>
      <point x="192" y="680" type="line"/>
      <point x="328" y="680" type="line" smooth="yes"/>
      <point x="432" y="680"/>
      <point x="496" y="656"/>
      <point x="496" y="552" type="curve" smooth="yes"/>
      <point x="496" y="448"/>
      <point x="432" y="424"/>
      <point x="328" y="424" type="curve" smooth="yes"/>
    </contour>
    <contour>
      <point x="96" y="0" type="line"/>
      <point x="168" y="0" type="line"/>
      <point x="184" y="16" type="line"/>
      <point x="184" y="328" type="line"/>
      <point x="192" y="336" type="line"/>
      <point x="344" y="336" type="line" smooth="yes"/>
      <point x="504" y="336"/>
      <point x="600" y="392"/>
      <point x="600" y="552" type="curve" smooth="yes"/>
      <point x="600" y="712"/>
      <point x="504" y="768"/>
      <point x="344" y="768" type="curve" smooth="yes"/>
      <point x="96" y="768" type="line"/>
      <point x="80" y="752" type="line"/>
      <point x="80" y="16" type="line"/>
    </contour>
  </outline>
</glyph>
<glyph name="S" format="2">
  <advance width="696"/>
  <unicode hex="0053"/>
  <outline>
    <contour>
      <point x="366" y="-16" type="curve" smooth="yes"/>
      <point x="522" y="-16"/>
      <point x="656" y="56"/>
      <point x="656" y="198" type="curve" smooth="yes"/>
      <point x="656" y="338"/>
      <point x="592" y="400"/>
      <point x="382" y="444" type="curve" smooth="yes"/>
      <point x="238" y="474"/>
      <point x="170" y="504"/>
      <point x="170" y="578" type="curve" smooth="yes"/>
      <point x="170" y="654"/>
      <point x="222" y="694"/>
      <point x="340" y="694" type="curve" smooth="yes"/>
      <point x="458" y="694"/>
      <point x="516" y="620"/>
      <point x="528" y="564" type="curve"/>
      <point x="544" y="548" type="line"/>
      <point x="612" y="548" type="line"/>
      <point x="628" y="564" type="line"/>
      <point x="628" y="580" type="line"/>
      <point x="602" y="688"/>
      <point x="518" y="784"/>
      <point x="340" y="784" type="curve" smooth="yes"/>
      <point x="152" y="784"/>
      <point x="70" y="686"/>
      <point x="70" y="578" type="curve" smooth="yes"/>
      <point x="70" y="452"/>
      <point x="160" y="398"/>
      <point x="332" y="362" type="curve" smooth="yes"/>
      <point x="526" y="322"/>
      <point x="556" y="276"/>
      <point x="556" y="198" type="curve" smooth="yes"/>
      <point x="556" y="106"/>
      <point x="462" y="74"/>
      <point x="366" y="74" type="curve" smooth="yes"/>
      <point x="242" y="74"/>
      <point x="148" y="142"/>
      <point x="140" y="246" type="curve"/>
      <point x="124" y="262" type="line"/>
      <point x="56" y="262" type="line"/>
      <point x="40" y="246" type="line"/>
      <point x="40" y="230" type="line"/>
      <point x="48" y="100"/>
      <point x="166" y="-16"/>
    </contour>
  </outline>
</glyph>
<glyph name="U" format="2">
  <advance width="768"/>
  <unicode hex="0055"/>
  <outline>
    <contour>
      <point x="384" y="-16" type="curve" smooth="yes"/>
      <point x="580" y="-16"/>
      <point x="688" y="92"/>
      <point x="688" y="288" type="curve" smooth="yes"/>
      <point x="688" y="752" type="line"/>
      <point x="672" y="768" type="line"/>
      <point x="600" y="768" type="line"/>
      <point x="584" y="752" type="line"/>
      <point x="584" y="304" type="line" smooth="yes"/>
      <point x="584" y="164"/>
      <point x="512" y="80"/>
      <point x="384" y="80" type="curve" smooth="yes"/>
      <point x="256" y="80"/>
      <point x="184" y="164"/>
      <point x="184" y="304" type="curve" smooth="yes"/>
      <point x="184" y="752" type="line"/>
      <point x="168" y="768" type="line"/>
      <point x="96" y="768" type="line"/>
      <point x="80" y="752" type="line"/>
      <point x="80" y="288" type="line" smooth="yes"/>
      <point x="80" y="92"/>
      <point x="188" y="-16"/>
    </contour>
  </outline>
</glyph>
<glyph name="V" format="2">
  <advance width="672"/>
  <unicode hex="0056"/>
  <outline>
    <contour>
      <point x="278" y="0" type="line"/>
      <point x="390" y="0" type="line"/>
      <point x="410" y="16" type="line"/>
      <point x="640" y="694" type="line"/>
      <point x="640" y="752" type="line"/>
      <point x="624" y="768" type="line"/>
      <point x="570" y="768" type="line"/>
      <point x="554" y="752" type="line"/>
      <point x="344" y="114" type="line"/>
      <point x="328" y="114" type="line"/>
      <point x="118" y="752" type="line"/>
      <point x="102" y="768" type="line"/>
      <point x="48" y="768" type="line"/>
      <point x="32" y="752" type="line"/>
      <point x="32" y="694" type="line"/>
      <point x="262" y="16" type="line"/>
    </contour>
  </outline>
</glyph>
<glyph name="W" format="2">
  <advance width="988"/>
  <unicode hex="0057"/>
  <anchor x="480" y="0" name="bottom"/>
  <anchor x="480" y="800" name="top"/>
  <outline>
    <contour>
      <point x="200" y="0" type="line"/>
      <point x="314" y="0" type="line"/>
      <point x="330" y="16" type="line"/>
      <point x="490" y="656" type="line"/>
      <point x="498" y="656" type="line"/>
      <point x="650" y="16" type="line"/>
      <point x="666" y="0" type="line"/>
      <point x="776" y="0" type="line"/>
      <point x="796" y="16" type="line"/>
      <point x="972" y="696" type="line"/>
      <point x="972" y="752" type="line"/>
      <point x="956" y="768" type="line"/>
      <point x="884" y="768" type="line"/>
      <point x="868" y="752" type="line"/>
      <point x="724" y="128" type="line"/>
      <point x="716" y="128" type="line"/>
      <point x="560" y="752" type="line"/>
      <point x="544" y="768" type="line"/>
      <point x="444" y="768" type="line"/>
      <point x="428" y="752" type="line"/>
      <point x="272" y="128" type="line"/>
      <point x="264" y="128" type="line"/>
      <point x="120" y="752" type="line"/>
      <point x="104" y="768" type="line"/>
      <point x="32" y="768" type="line"/>
      <point x="16" y="752" type="line"/>
      <point x="16" y="696" type="line"/>
      <point x="184" y="16" type="line"/>
    </contour>
  </outline>
</glyph>
<glyph name="X" format="2">
  <advance width="648"/>
  <unicode hex="0058"/>
  <outline>
    <contour>
      <point x="32" y="0" type="line"/>
      <point x="72" y="0" type="line"/>
      <point x="96" y="16" type="line"/>
      <point x="316" y="304" type="line"/>
      <point x="332" y="304" type="line"/>
      <point x="552" y="16" type="line"/>
      <point x="576" y="0" type="line"/>
      <point x="616" y="0" type="line"/>
      <point x="632" y="16" type="line"/>
      <point x="632" y="92" type="line"/>
      <point x="400" y="384" type="line"/>
      <point x="400" y="404" type="line"/>
      <point x="624" y="676" type="line"/>
      <point x="624" y="752" type="line"/>
      <point x="608" y="768" type="line"/>
      <point x="564" y="768" type="line"/>
      <point x="540" y="752" type="line"/>
      <point x="332" y="476" type="line"/>
      <point x="316" y="476" type="line"/>
      <point x="104" y="752" type="line"/>
      <point x="80" y="768" type="line"/>
      <point x="40" y="768" type="line"/>
      <point x="24" y="752" type="line"/>
      <point x="24" y="676" type="line"/>
      <point x="248" y="404" type="line"/>
      <point x="248" y="384" type="line"/>
      <point x="16" y="92" type="line"/>
      <point x="16" y="16" type="line"/>
    </contour>
  </outline>
</glyph>
<glyph name="b" format="2">
  <advance width="624"/>
  <unicode hex="0062"/>
  <outline>
    <contour>
      <point x="88" y="0" type="line"/>
      <point x="144" y="0" type="line"/>
      <point x="160" y="16" type="line"/>
      <point x="168" y="64" type="line"/>
      <point x="176" y="64" type="line"/>
      <point x="208" y="20"/>
      <point x="276" y="-16"/>
      <point x="352" y="-16" type="curve" smooth="yes"/>
      <point x="512" y="-16"/>
      <point x="584" y="124"/>
      <point x="584" y="288" type="curve" smooth="yes"/>
      <point x="584" y="452"/>
      <point x="512" y="592"/>
      <point x="352" y="592" type="curve" smooth="yes"/>
      <point x="264" y="592"/>
      <point x="208" y="556"/>
      <point x="176" y="512" type="curve"/>
      <point x="168" y="512" type="line"/>
      <point x="168" y="752" type="line"/>
      <point x="152" y="768" type="line"/>
      <point x="88" y="768" type="line"/>
      <point x="72" y="752" type="line"/>
      <point x="72" y="16" type="line"/>
    </contour>
    <contour>
      <point x="320" y="504" type="curve" smooth="yes"/>
      <point x="424" y="504"/>
      <point x="480" y="416"/>
      <point x="480" y="288" type="curve" smooth="yes"/>
      <point x="480" y="160"/>
      <point x="424" y="72"/>
      <point x="320" y="72" type="curve" smooth="yes"/>
      <point x="216" y="72"/>
      <point x="160" y="160"/>
      <point x="160" y="288" type="curve" smooth="yes"/>
      <point x="160" y="416"/>
      <point x="216" y="504"/>
    </contour>
  </outline>
</glyph>
<glyph name="c" format="2">
  <advance width="616"/>
  <unicode hex="0063"/>
  <outline>
    <contour>
      <point x="328" y="-16" type="curve" smooth="yes"/>
      <point x="488" y="-16"/>
      <point x="548" y="70"/>
      <point x="576" y="176" type="curve"/>
      <point x="576" y="192" type="line"/>
      <point x="560" y="208" type="line"/>
      <point x="492" y="208" type="line"/>
      <point x="476" y="192" type="line"/>
      <point x="464" y="144"/>
      <point x="420" y="72"/>
      <point x="328" y="72" type="curve" smooth="yes"/>
      <point x="204" y="72"/>
      <point x="152" y="164"/>
      <point x="152" y="288" type="curve" smooth="yes"/>
      <point x="152" y="412"/>
      <point x="204" y="504"/>
      <point x="328" y="504" type="curve" smooth="yes"/>
      <point x="416" y="504"/>
      <point x="462" y="442"/>
      <point x="476" y="392" type="curve"/>
      <point x="492" y="376" type="line"/>
      <point x="560" y="376" type="line"/>
      <point x="576" y="392" type="line"/>
      <point x="576" y="408" type="line"/>
      <point x="552" y="484"/>
      <point x="482" y="592"/>
      <point x="328" y="592" type="curve" smooth="yes"/>
      <point x="152" y="592"/>
      <point x="48" y="464"/>
      <point x="48" y="288" type="curve" smooth="yes"/>
      <point x="48" y="112"/>
      <point x="152" y="-16"/>
    </contour>
  </outline>
</glyph>
<glyph name="e" format="2">
  <advance width="640"/>
  <unicode hex="0065"/>
  <outline>
    <contour>
      <point x="164" y="338" type="line"/>
      <point x="156" y="346" type="line"/>
      <point x="156" y="418"/>
      <point x="208" y="504"/>
      <point x="328" y="504" type="curve" smooth="yes"/>
      <point x="448" y="504"/>
      <point x="496" y="418"/>
      <point x="496" y="346" type="curve"/>
      <point x="488" y="338" type="line"/>
    </contour>
    <contour>
      <point x="328" y="-16" type="curve" smooth="yes"/>
      <point x="492" y="-16"/>
      <point x="578" y="80"/>
      <point x="582" y="168" type="curve"/>
      <point x="566" y="184" type="line"/>
      <point x="504" y="184" type="line"/>
      <point x="496" y="176" type="line"/>
      <point x="476" y="114"/>
      <point x="424" y="72"/>
      <point x="328" y="72" type="curve" smooth="yes"/>
      <point x="228" y="72"/>
      <point x="164" y="160"/>
      <point x="156" y="248" type="curve"/>
      <point x="164" y="256" type="line"/>
      <point x="576" y="256" type="line"/>
      <point x="592" y="272" type="line"/>
      <point x="592" y="304" type="line" smooth="yes"/>
      <point x="592" y="496"/>
      <point x="474" y="592"/>
      <point x="328" y="592" type="curve" smooth="yes"/>
      <point x="152" y="592"/>
      <point x="48" y="464"/>
      <point x="48" y="288" type="curve" smooth="yes"/>
      <point x="48" y="112"/>
      <point x="160" y="-16"/>
    </contour>
  </outline>
</glyph>
<glyph name="g" format="2">
  <advance width="642"/>
  <unicode hex="0067"/>
  <anchor x="282" y="-224" name="bottom"/>
  <anchor x="270" y="576" name="top"/>
  <outline>
    <contour>
      <point x="554" y="576" type="line"/>
      <point x="490" y="576" type="line"/>
      <point x="474" y="560" type="line"/>
      <point x="466" y="512" type="line"/>
      <point x="450" y="512" type="line"/>
      <point x="418" y="556"/>
      <point x="358" y="592"/>
      <point x="282" y="592" type="curve" smooth="yes"/>
      <point x="122" y="592"/>
      <point x="48" y="452"/>
      <point x="48" y="288" type="curve" smooth="yes"/>
      <point x="48" y="172"/>
      <point x="122" y="16"/>
      <point x="282" y="16" type="curve" smooth="yes"/>
      <point x="370" y="16"/>
      <point x="418" y="52"/>
      <point x="450" y="96" type="curve"/>
      <point x="466" y="88" type="line"/>
      <point x="466" y="16" type="line" smooth="yes"/>
      <point x="466" y="-100"/>
      <point x="406" y="-152"/>
      <point x="306" y="-152" type="curve" smooth="yes"/>
      <point x="218" y="-152"/>
      <point x="178" y="-96"/>
      <point x="170" y="-68" type="curve"/>
      <point x="154" y="-52" type="line"/>
      <point x="90" y="-52" type="line"/>
      <point x="74" y="-68" type="line"/>
      <point x="74" y="-84" type="line"/>
      <point x="86" y="-156"/>
      <point x="154" y="-240"/>
      <point x="306" y="-240" type="curve" smooth="yes"/>
      <point x="502" y="-240"/>
      <point x="570" y="-148"/>
      <point x="570" y="64" type="curve" smooth="yes"/>
      <point x="570" y="560" type="line"/>
    </contour>
    <contour>
      <point x="314" y="96" type="curve" smooth="yes"/>
      <point x="214" y="96"/>
      <point x="154" y="200"/>
      <point x="154" y="288" type="curve" smooth="yes"/>
      <point x="154" y="424"/>
      <point x="214" y="512"/>
      <point x="314" y="512" type="curve" smooth="yes"/>
      <point x="414" y="512"/>
      <point x="474" y="424"/>
      <point x="474" y="288" type="curve" smooth="yes"/>
      <point x="474" y="184"/>
      <point x="414" y="96"/>
    </contour>
  </outline>
</glyph>
<glyph name="h" format="2">
  <advance width="600"/>
  <unicode hex="0068"/>
  <outline>
    <contour>
      <point x="88" y="0" type="line"/>
      <point x="152" y="0" type="line"/>
      <point x="168" y="16" type="line"/>
      <point x="168" y="352" type="line" smooth="yes"/>
      <point x="168" y="454"/>
      <point x="208" y="512"/>
      <point x="304" y="512" type="curve" smooth="yes"/>
      <point x="400" y="512"/>
      <point x="440" y="454"/>
      <point x="440" y="352" type="curve" smooth="yes"/>
      <point x="440" y="16" type="line"/>
      <point x="456" y="0" type="line"/>
      <point x="520" y="0" type="line"/>
      <point x="536" y="16" type="line"/>
      <point x="536" y="384" type="line" smooth="yes"/>
      <point x="536" y="512"/>
      <point x="464" y="592"/>
      <point x="336" y="592" type="curve" smooth="yes"/>
      <point x="272" y="592"/>
      <point x="208" y="560"/>
      <point x="176" y="512" type="curve"/>
      <point x="168" y="512" type="line"/>
      <point x="168" y="752" type="line"/>
      <point x="152" y="768" type="line"/>
      <point x="88" y="768" type="line"/>
      <point x="72" y="752" type="line"/>
      <point x="72" y="16" type="line"/>
    </contour>
  </outline>
</glyph>
<glyph name="i" format="2">
  <advance width="244"/>
  <unicode hex="0069"/>
  <outline>
    <contour>
      <point x="86" y="656" type="line"/>
      <point x="158" y="656" type="line"/>
      <point x="174" y="672" type="line"/>
      <point x="174" y="752" type="line"/>
      <point x="158" y="768" type="line"/>
      <point x="86" y="768" type="line"/>
      <point x="70" y="752" type="line"/>
      <point x="70" y="672" type="line"/>
    </contour>
    <contour>
      <point x="90" y="0" type="line"/>
      <point x="154" y="0" type="line"/>
      <point x="170" y="16" type="line"/>
      <point x="170" y="560" type="line"/>
      <point x="154" y="576" type="line"/>
      <point x="90" y="576" type="line"/>
      <point x="74" y="560" type="line"/>
      <point x="74" y="16" type="line"/>
    </contour>
  </outline>
</glyph>
<glyph name="k" format="2">
  <advance width="548"/>
  <unicode hex="006B"/>
  <anchor x="252" y="0" name="bottom"/>
  <anchor x="252" y="800" name="top"/>
  <outline>
    <contour>
      <point x="88" y="0" type="line"/>
      <point x="152" y="0" type="line"/>
      <point x="168" y="16" type="line"/>
      <point x="168" y="148" type="line"/>
      <point x="274" y="262" type="line"/>
      <point x="282" y="262" type="line"/>
      <point x="458" y="12" type="line"/>
      <point x="474" y="0" type="line"/>
      <point x="516" y="0" type="line"/>
      <point x="532" y="16" type="line"/>
      <point x="532" y="70" type="line"/>
      <point x="346" y="328" type="line"/>
      <point x="346" y="336" type="line"/>
      <point x="532" y="536" type="line"/>
      <point x="532" y="560" type="line"/>
      <point x="516" y="576" type="line"/>
      <point x="448" y="576" type="line"/>
      <point x="430" y="560" type="line"/>
      <point x="176" y="280" type="line"/>
      <point x="168" y="280" type="line"/>
      <point x="168" y="752" type="line"/>
      <point x="152" y="768" type="line"/>
      <point x="88" y="768" type="line"/>
      <point x="72" y="752" type="line"/>
      <point x="72" y="16" type="line"/>
    </contour>
  </outline>
</glyph>
<glyph name="l" format="2">
  <advance width="264"/>
  <unicode hex="006C"/>
  <outline>
    <contour>
      <point x="168" y="0" type="curve" smooth="yes"/>
      <point x="232" y="0" type="line"/>
      <point x="248" y="16" type="line"/>
      <point x="248" y="72" type="line"/>
      <point x="232" y="88" type="line"/>
      <point x="208" y="88" type="line" smooth="yes"/>
      <point x="180" y="88"/>
      <point x="168" y="104"/>
      <point x="168" y="136" type="curve" smooth="yes"/>
      <point x="168" y="752" type="line"/>
      <point x="152" y="768" type="line"/>
      <point x="88" y="768" type="line"/>
      <point x="72" y="752" type="line"/>
      <point x="72" y="112" type="line" smooth="yes"/>
      <point x="72" y="48"/>
      <point x="104" y="0"/>
    </contour>
  </outline>
</glyph>
<glyph name="m" format="2">
  <advance width="936"/>
  <unicode hex="006D"/>
  <outline>
    <contour>
      <point x="88" y="0" type="line"/>
      <point x="160" y="0" type="line"/>
      <point x="176" y="16" type="line"/>
      <point x="176" y="352" type="line" smooth="yes"/>
      <point x="176" y="448"/>
      <point x="200" y="504"/>
      <point x="296" y="504" type="curve" smooth="yes"/>
      <point x="392" y="504"/>
      <point x="416" y="448"/>
      <point x="416" y="352" type="curve" smooth="yes"/>
      <point x="416" y="16" type="line"/>
      <point x="432" y="0" type="line"/>
      <point x="504" y="0" type="line"/>
      <point x="520" y="16" type="line"/>
      <point x="520" y="352" type="line" smooth="yes"/>
      <point x="520" y="448"/>
      <point x="544" y="504"/>
      <point x="640" y="504" type="curve" smooth="yes"/>
      <point x="736" y="504"/>
      <point x="760" y="448"/>
      <point x="760" y="352" type="curve" smooth="yes"/>
      <point x="760" y="16" type="line"/>
      <point x="776" y="0" type="line"/>
      <point x="848" y="0" type="line"/>
      <point x="864" y="16" type="line"/>
      <point x="864" y="352" type="line" smooth="yes"/>
      <point x="864" y="496"/>
      <point x="816" y="592"/>
      <point x="656" y="592" type="curve" smooth="yes"/>
      <point x="576" y="592"/>
      <point x="512" y="560"/>
      <point x="488" y="512" type="curve"/>
      <point x="480" y="512" type="line"/>
      <point x="464" y="560"/>
      <point x="408" y="592"/>
      <point x="328" y="592" type="curve" smooth="yes"/>
      <point x="248" y="592"/>
      <point x="196" y="552"/>
      <point x="180" y="512" type="curve"/>
      <point x="172" y="512" type="line"/>
      <point x="164" y="560" type="line"/>
      <point x="148" y="576" type="line"/>
      <point x="88" y="576" type="line"/>
      <point x="72" y="560" type="line"/>
      <point x="72" y="16" type="line"/>
    </contour>
  </outline>
</glyph>
<glyph name="n" format="2">
  <advance width="600"/>
  <unicode hex="006E"/>
  <outline>
    <contour>
      <point x="88" y="0" type="line"/>
      <point x="152" y="0" type="line"/>
      <point x="168" y="16" type="line"/>
      <point x="168" y="344" type="line" smooth="yes"/>
      <point x="168" y="440"/>
      <point x="208" y="504"/>
      <point x="304" y="504" type="curve" smooth="yes"/>
      <point x="400" y="504"/>
      <point x="440" y="440"/>
      <point x="440" y="344" type="curve" smooth="yes"/>
      <point x="440" y="16" type="line"/>
      <point x="456" y="0" type="line"/>
      <point x="520" y="0" type="line"/>
      <point x="536" y="16" type="line"/>
      <point x="536" y="376" type="line" smooth="yes"/>
      <point x="536" y="504"/>
      <point x="464" y="592"/>
      <point x="336" y="592" type="curve" smooth="yes"/>
      <point x="272" y="592"/>
      <point x="208" y="560"/>
      <point x="176" y="512" type="curve"/>
      <point x="168" y="512" type="line"/>
      <point x="168" y="560" type="line"/>
      <point x="152" y="576" type="line"/>
      <point x="88" y="576" type="line"/>
      <point x="72" y="560" type="line"/>
      <point x="72" y="16" type="line"/>
    </contour>
  </outline>
</glyph>
<glyph name="o" format="2">
  <advance width="624"/>
  <unicode hex="006F"/>
  <outline>
    <contour>
      <point x="312" y="-16" type="curve" smooth="yes"/>
      <point x="488" y="-16"/>
      <point x="588" y="112"/>
      <point x="592" y="292" type="curve" smooth="yes"/>
      <point x="596" y="464"/>
      <point x="488" y="592"/>
      <point x="312" y="592" type="curve" smooth="yes"/>
      <point x="136" y="592"/>
      <point x="32" y="464"/>
      <point x="32" y="292" type="curve" smooth="yes"/>
      <point x="32" y="112"/>
      <point x="136" y="-16"/>
    </contour>
    <contour>
      <point x="312" y="72" type="curve" smooth="yes"/>
      <point x="188" y="72"/>
      <point x="136" y="164"/>
      <point x="136" y="292" type="curve" smooth="yes"/>
      <point x="136" y="412"/>
      <point x="188" y="512"/>
      <point x="312" y="512" type="curve" smooth="yes"/>
      <point x="436" y="512"/>
      <point x="488" y="412"/>
      <point x="488" y="292" type="curve" smooth="yes"/>
      <point x="488" y="164"/>
      <point x="436" y="72"/>
    </contour>
  </outline>
</glyph>
<glyph name="p" format="2">
  <advance width="642"/>
  <unicode hex="0070"/>
  <outline>
    <contour>
      <point x="88" y="-200" type="line"/>
      <point x="152" y="-200" type="line"/>
      <point x="168" y="-184" type="line"/>
      <point x="168" y="64" type="line"/>
      <point x="176" y="64" type="line"/>
      <point x="208" y="20"/>
      <point x="272" y="-16"/>
      <point x="360" y="-16" type="curve" smooth="yes"/>
      <point x="520" y="-16"/>
      <point x="594" y="124"/>
      <point x="594" y="288" type="curve" smooth="yes"/>
      <point x="594" y="452"/>
      <point x="520" y="592"/>
      <point x="360" y="592" type="curve" smooth="yes"/>
      <point x="284" y="592"/>
      <point x="208" y="556"/>
      <point x="176" y="512" type="curve"/>
      <point x="168" y="512" type="line"/>
      <point x="160" y="560" type="line"/>
      <point x="144" y="576" type="line"/>
      <point x="88" y="576" type="line"/>
      <point x="72" y="560" type="line"/>
      <point x="72" y="-184" type="line"/>
    </contour>
    <contour>
      <point x="328" y="80" type="curve" smooth="yes"/>
      <point x="240" y="80"/>
      <point x="168" y="152"/>
      <point x="168" y="288" type="curve" smooth="yes"/>
      <point x="168" y="424"/>
      <point x="240" y="496"/>
      <point x="328" y="496" type="curve" smooth="yes"/>
      <point x="428" y="496"/>
      <point x="488" y="424"/>
      <point x="488" y="288" type="curve" smooth="yes"/>
      <point x="488" y="152"/>
      <point x="428" y="80"/>
    </contour>
  </outline>
</glyph>
<glyph name="r" format="2">
  <advance width="360"/>
  <unicode hex="0072"/>
  <outline>
    <contour>
      <point x="88" y="0" type="line"/>
      <point x="152" y="0" type="line"/>
      <point x="168" y="16" type="line"/>
      <point x="168" y="328" type="line" smooth="yes"/>
      <point x="168" y="456"/>
      <point x="200" y="488"/>
      <point x="296" y="488" type="curve" smooth="yes"/>
      <point x="328" y="488" type="line"/>
      <point x="344" y="504" type="line"/>
      <point x="344" y="560" type="line"/>
      <point x="328" y="576" type="line"/>
      <point x="296" y="576" type="line" smooth="yes"/>
      <point x="256" y="576"/>
      <point x="208" y="560"/>
      <point x="176" y="512" type="curve"/>
      <point x="168" y="512" type="line"/>
      <point x="160" y="560" type="line"/>
      <point x="144" y="576" type="line"/>
      <point x="88" y="576" type="line"/>
      <point x="72" y="560" type="line"/>
      <point x="72" y="16" type="line"/>
    </contour>
  </outline>
</glyph>
<glyph name="s" format="2">
  <advance width="568"/>
  <unicode hex="0073"/>
  <outline>
    <contour>
      <point x="280" y="-16" type="curve" smooth="yes"/>
      <point x="436" y="-16"/>
      <point x="520" y="52"/>
      <point x="520" y="160" type="curve" smooth="yes"/>
      <point x="520" y="252"/>
      <point x="450" y="296"/>
      <point x="334" y="326" type="curve" smooth="yes"/>
      <point x="302" y="334" type="line" smooth="yes"/>
      <point x="206" y="358"/>
      <point x="144" y="374"/>
      <point x="144" y="424" type="curve" smooth="yes"/>
      <point x="144" y="472"/>
      <point x="184" y="512"/>
      <point x="264" y="512" type="curve" smooth="yes"/>
      <point x="348" y="512"/>
      <point x="408" y="472"/>
      <point x="408" y="420" type="curve"/>
      <point x="424" y="404" type="line"/>
      <point x="480" y="404" type="line"/>
      <point x="496" y="420" type="line"/>
      <point x="494" y="442" type="line"/>
      <point x="482" y="546"/>
      <point x="388" y="592"/>
      <point x="264" y="592" type="curve" smooth="yes"/>
      <point x="108" y="592"/>
      <point x="48" y="504"/>
      <point x="48" y="424" type="curve" smooth="yes"/>
      <point x="48" y="328"/>
      <point x="128" y="290"/>
      <point x="246" y="260" type="curve" smooth="yes"/>
      <point x="278" y="252" type="line" smooth="yes"/>
      <point x="376" y="228"/>
      <point x="424" y="208"/>
      <point x="424" y="160" type="curve" smooth="yes"/>
      <point x="424" y="116"/>
      <point x="376" y="64"/>
      <point x="280" y="64" type="curve" smooth="yes"/>
      <point x="216" y="64"/>
      <point x="136" y="92"/>
      <point x="136" y="172" type="curve"/>
      <point x="120" y="188" type="line"/>
      <point x="64" y="188" type="line"/>
      <point x="48" y="172" type="line"/>
      <point x="48" y="152" type="line"/>
      <point x="56" y="38"/>
      <point x="140" y="-16"/>
    </contour>
  </outline>
</glyph>
<glyph name="t" format="2">
  <advance width="360"/>
  <unicode hex="0074"/>
  <outline>
    <contour>
      <point x="232" y="0" type="curve" smooth="yes"/>
      <point x="328" y="0" type="line"/>
      <point x="344" y="16" type="line"/>
      <point x="344" y="64" type="line"/>
      <point x="328" y="80" type="line"/>
      <point x="248" y="80" type="line" smooth="yes"/>
      <point x="216" y="80"/>
      <point x="200" y="96"/>
      <point x="200" y="128" type="curve" smooth="yes"/>
      <point x="200" y="488" type="line"/>
      <point x="208" y="496" type="line"/>
      <point x="328" y="496" type="line"/>
      <point x="344" y="512" type="line"/>
      <point x="344" y="560" type="line"/>
      <point x="328" y="576" type="line"/>
      <point x="208" y="576" type="line"/>
      <point x="200" y="584" type="line"/>
      <point x="200" y="720" type="line"/>
      <point x="184" y="736" type="line"/>
      <point x="120" y="736" type="line"/>
      <point x="104" y="720" type="line"/>
      <point x="104" y="584" type="line"/>
      <point x="96" y="576" type="line"/>
      <point x="40" y="576" type="line"/>
      <point x="24" y="560" type="line"/>
      <point x="24" y="512" type="line"/>
      <point x="40" y="496" type="line"/>
      <point x="96" y="496" type="line"/>
      <point x="104" y="488" type="line"/>
      <point x="104" y="128" type="line" smooth="yes"/>
      <point x="104" y="32"/>
      <point x="136" y="0"/>
    </contour>
  </outline>
</glyph>
<glyph name="u" format="2">
  <advance width="608"/>
  <unicode hex="0075"/>
  <outline>
    <contour>
      <point x="520" y="576" type="line"/>
      <point x="456" y="576" type="line"/>
      <point x="440" y="560" type="line"/>
      <point x="440" y="224" type="line" smooth="yes"/>
      <point x="440" y="122"/>
      <point x="400" y="64"/>
      <point x="304" y="64" type="curve" smooth="yes"/>
      <point x="208" y="64"/>
      <point x="168" y="122"/>
      <point x="168" y="224" type="curve" smooth="yes"/>
      <point x="168" y="560" type="line"/>
      <point x="152" y="576" type="line"/>
      <point x="88" y="576" type="line"/>
      <point x="72" y="560" type="line"/>
      <point x="72" y="192" type="line" smooth="yes"/>
      <point x="72" y="64"/>
      <point x="144" y="-16"/>
      <point x="272" y="-16" type="curve" smooth="yes"/>
      <point x="336" y="-16"/>
      <point x="400" y="16"/>
      <point x="432" y="64" type="curve"/>
      <point x="440" y="64" type="line"/>
      <point x="448" y="16" type="line"/>
      <point x="464" y="0" type="line"/>
      <point x="520" y="0" type="line"/>
      <point x="536" y="16" type="line"/>
      <point x="536" y="560" type="line"/>
    </contour>
  </outline>
</glyph>
<glyph name="v" format="2">
  <advance width="528"/>
  <unicode hex="0076"/>
  <outline>
    <contour>
      <point x="214" y="0" type="line"/>
      <point x="314" y="0" type="line"/>
      <point x="330" y="16" type="line"/>
      <point x="512" y="512" type="line"/>
      <point x="512" y="560" type="line"/>
      <point x="496" y="576" type="line"/>
      <point x="444" y="576" type="line"/>
      <point x="428" y="560" type="line"/>
      <point x="268" y="108" type="line"/>
      <point x="260" y="108" type="line"/>
      <point x="100" y="560" type="line"/>
      <point x="84" y="576" type="line"/>
      <point x="32" y="576" type="line"/>
      <point x="16" y="560" type="line"/>
      <point x="16" y="512" type="line"/>
      <point x="198" y="16" type="line"/>
    </contour>
  </outline>
</glyph>
<glyph name="w" format="2">
  <advance width="840"/>
  <unicode hex="0077"/>
  <anchor x="420" y="0" name="bottom"/>
  <anchor x="420" y="576" name="top"/>
  <outline>
    <contour>
      <point x="172" y="0" type="line"/>
      <point x="286" y="0" type="line"/>
      <point x="304" y="16" type="line"/>
      <point x="412" y="428" type="line"/>
      <point x="428" y="428" type="line"/>
      <point x="536" y="16" type="line"/>
      <point x="552" y="0" type="line"/>
      <point x="668" y="0" type="line"/>
      <point x="684" y="16" type="line"/>
      <point x="800" y="512" type="line"/>
      <point x="800" y="560" type="line"/>
      <point x="784" y="576" type="line"/>
      <point x="728" y="576" type="line"/>
      <point x="712" y="560" type="line"/>
      <point x="616" y="108" type="line"/>
      <point x="600" y="108" type="line"/>
      <point x="476" y="560" type="line"/>
      <point x="460" y="576" type="line"/>
      <point x="380" y="576" type="line"/>
      <point x="364" y="560" type="line"/>
      <point x="234" y="108" type="line"/>
      <point x="222" y="108" type="line"/>
      <point x="128" y="560" type="line"/>
      <point x="112" y="576" type="line"/>
      <point x="56" y="576" type="line"/>
      <point x="40" y="560" type="line"/>
      <point x="40" y="512" type="line"/>
      <point x="156" y="16" type="line"/>
    </contour>
  </outline>
</glyph>
<glyph name="x" format="2">
  <advance width="548"/>
  <unicode hex="0078"/>
  <outline>
    <contour>
      <point x="58" y="0" type="line"/>
      <point x="102" y="0" type="line"/>
      <point x="118" y="16" type="line"/>
      <point x="262" y="224" type="line"/>
      <point x="274" y="224" type="line"/>
      <point x="416" y="16" type="line"/>
      <point x="432" y="0" type="line"/>
      <point x="476" y="0" type="line"/>
      <point x="492" y="16" type="line"/>
      <point x="492" y="68" type="line"/>
      <point x="338" y="286" type="line"/>
      <point x="338" y="302" type="line"/>
      <point x="482" y="508" type="line"/>
      <point x="482" y="560" type="line"/>
      <point x="466" y="576" type="line"/>
      <point x="422" y="576" type="line"/>
      <point x="406" y="560" type="line"/>
      <point x="274" y="366" type="line"/>
      <point x="262" y="366" type="line"/>
      <point x="128" y="560" type="line"/>
      <point x="112" y="576" type="line"/>
      <point x="68" y="576" type="line"/>
      <point x="52" y="560" type="line"/>
      <point x="52" y="508" type="line"/>
      <point x="198" y="302" type="line"/>
      <point x="198" y="286" type="line"/>
      <point x="42" y="68" type="line"/>
      <point x="42" y="16" type="line"/>
    </contour>
  </outline>
</glyph>
<glyph name="y" format="2">
  <advance width="534"/>
  <unicode hex="0079"/>
  <anchor x="278" y="0" name="bottom"/>
  <anchor x="274" y="576" name="top"/>
  <outline>
    <contour>
      <point x="32" y="-200" type="line"/>
      <point x="86" y="-200" type="line" smooth="yes"/>
      <point x="210" y="-200"/>
      <point x="248" y="-166"/>
      <point x="286" y="-72" type="curve" smooth="yes"/>
      <point x="518" y="512" type="line"/>
      <point x="518" y="560" type="line"/>
      <point x="502" y="576" type="line"/>
      <point x="446" y="576" type="line"/>
      <point x="430" y="560" type="line"/>
      <point x="276" y="150" type="line"/>
      <point x="268" y="150" type="line"/>
      <point x="122" y="560" type="line"/>
      <point x="106" y="576" type="line"/>
      <point x="48" y="576" type="line"/>
      <point x="32" y="560" type="line"/>
      <point x="32" y="512" type="line"/>
      <point x="218" y="16" type="line"/>
      <point x="218" y="0" type="line"/>
      <point x="202" y="-40" type="line" smooth="yes"/>
      <point x="182" y="-90"/>
      <point x="156" y="-112"/>
      <point x="86" y="-112" type="curve" smooth="yes"/>
      <point x="32" y="-112" type="line"/>
      <point x="16" y="-128" type="line"/>
      <point x="16" y="-184" type="line"/>
    </contour>
  </outline>
</glyph>
<glyph name="z" format="2">
  <advance width="480"/>
  <unicode hex="007A"/>
  <anchor x="252" y="0" name="bottom"/>
  <anchor x="238" y="280" name="center"/>
  <anchor x="252" y="576" name="top"/>
  <outline>
    <contour>
      <point x="40" y="0" type="line"/>
      <point x="448" y="0" type="line"/>
      <point x="464" y="16" type="line"/>
      <point x="464" y="72" type="line"/>
      <point x="448" y="88" type="line"/>
      <point x="156" y="88" type="line"/>
      <point x="156" y="96" type="line"/>
      <point x="440" y="496" type="line"/>
      <point x="448" y="512" type="line"/>
      <point x="448" y="560" type="line"/>
      <point x="432" y="576" type="line"/>
      <point x="48" y="576" type="line"/>
      <point x="32" y="560" type="line"/>
      <point x="32" y="504" type="line"/>
      <point x="48" y="488" type="line"/>
      <point x="316" y="488" type="line"/>
      <point x="316" y="480" type="line"/>
      <point x="32" y="80" type="line"/>
      <point x="24" y="64" type="line"/>
      <point x="24" y="16" type="line"/>
    </contour>
  </outline>
</glyph>
<glyph name="alef-ar" format="2">
  <advance width="288"/>
  <unicode hex="0627"/>
  <anchor x="144" y="768" name="top"/>
  <anchor x="144" y="0" name="bottom"/>
  <outline>
    <contour>
      <point x="112" y="0" type="line"/>
      <point x="176" y="0" type="line"/>
      <point x="192" y="16" type="line"/>
      <point x="192" y="752" type="line"/>
      <point x="176" y="768" type="line"/>
      <point x="112" y="768" type="line"/>
      <point x="96" y="752" type="line"/>
      <point x="96" y="16" type="line"/>
    </contour>
  </outline>
</glyph>
<glyph name="hamzaabove-ar" format="2">
  <advance width="224"/>
  <unicode hex="0654"/>
  <anchor x="112" y="768" name="_top"/>
  <outline>
    <contour>
      <point x="16" y="848" type="line"/>
      <point x="208" y="848" type="line"/>
      <point x="224" y="864" type="line"/>
      <point x="224" y="888" type="line"/>
      <point x="208" y="904" type="line"/>
      <point x="176" y="904" type="line" smooth="yes"/>
      <point x="132" y="904"/>
      <point x="96" y="930"/>
      <point x="96" y="972" type="curve" smooth="yes"/>
      <point x="96" y="988"/>
      <point x="104" y="996"/>
      <point x="116" y="996" type="curve" smooth="yes"/>
      <point x="128" y="996"/>
      <point x="138" y="988"/>
      <point x="138" y="972" type="curve" smooth="yes"/>
      <point x="138" y="964" type="line"/>
      <point x="154" y="948" type="line"/>
      <point x="194" y="948" type="line"/>
      <point x="210" y="964" type="line"/>
      <point x="210" y="972" type="line" smooth="yes"/>
      <point x="210" y="1028"/>
      <point x="170" y="1062"/>
      <point x="114" y="1062" type="curve" smooth="yes"/>
      <point x="66" y="1062"/>
      <point x="24" y="1032"/>
      <point x="24" y="980" type="curve" smooth="yes"/>
      <point x="24" y="948"/>
      <point x="36" y="930"/>
      <point x="60" y="912" type="curve"/>
      <point x="60" y="904" type="line"/>
      <point x="16" y="904" type="line"/>
      <point x="0" y="888" type="line"/>
      <point x="0" y="864" type="line"/>
    </contour>
  </outline>
</glyph>
<glyph name="hamzabelow-ar" format="2">
  <advance width="224"/>
  <unicode hex="0655"/>
  <anchor x="114" y="0" name="_bottom"/>
  <outline>
    <contour>
      <point x="16" y="-256" type="line"/>
      <point x="208" y="-256" type="line"/>
      <point x="224" y="-240" type="line"/>
      <point x="224" y="-208" type="line"/>
      <point x="208" y="-192" type="line"/>
      <point x="144" y="-192" type="line" smooth="yes"/>
      <point x="116" y="-192"/>
      <point x="96" y="-176"/>
      <point x="96" y="-148" type="curve" smooth="yes"/>
      <point x="96" y="-134"/>
      <point x="104" y="-128"/>
      <point x="116" y="-128" type="curve" smooth="yes"/>
      <point x="128" y="-128"/>
      <point x="136" y="-134"/>
      <point x="136" y="-148" type="curve"/>
      <point x="144" y="-156" type="line"/>
      <point x="192" y="-156" type="line"/>
      <point x="208" y="-140" type="line"/>
      <point x="208" y="-92"/>
      <point x="178" y="-64"/>
      <point x="114" y="-64" type="curve" smooth="yes"/>
      <point x="50" y="-64"/>
      <point x="16" y="-106"/>
      <point x="16" y="-140" type="curve" smooth="yes"/>
      <point x="16" y="-162"/>
      <point x="26" y="-176"/>
      <point x="42" y="-184" type="curve"/>
      <point x="42" y="-192" type="line"/>
      <point x="16" y="-192" type="line"/>
      <point x="0" y="-208" type="line"/>
      <point x="0" y="-240" type="line"/>
    </contour>
  </outline>
</glyph>
<glyph name="alef-ar.fina" format="2">
  <advance width="256"/>
  <anchor x="112" y="768" name="top"/>
  <outline>
    <contour>
      <point x="256" y="0" type="curve"/>
      <point x="256" y="108" type="line"/>
      <point x="200" y="108"/>
      <point x="160" y="148"/>
      <point x="160" y="204" type="curve" smooth="yes"/>
      <point x="160" y="752" type="line"/>
      <point x="144" y="768" type="line"/>
      <point x="80" y="768" type="line"/>
      <point x="64" y="752" type="line"/>
      <point x="64" y="204" type="line" smooth="yes"/>
      <point x="64" y="76"/>
      <point x="128" y="0"/>
    </contour>
  </outline>
</glyph>
<glyph name="behDotless-ar.init" format="2">
  <advance width="256"/>
  <anchor x="144" y="432" name="top"/>
  <anchor x="0" y="16" name="bottom"/>
  <anchor x="144" y="472" name="topDots"/>
  <anchor x="0" y="0" name="bottomDots"/>
  <outline>
    <contour>
      <point x="0" y="0" type="line"/>
      <point x="128" y="0"/>
      <point x="192" y="76"/>
      <point x="192" y="204" type="curve" smooth="yes"/>
      <point x="192" y="416" type="line"/>
      <point x="176" y="432" type="line"/>
      <point x="112" y="432" type="line"/>
      <point x="96" y="416" type="line"/>
      <point x="96" y="204" type="line" smooth="yes"/>
      <point x="96" y="140"/>
      <point x="64" y="108"/>
      <point x="0" y="108" type="curve"/>
      <point x="-16" y="92" type="line"/>
      <point x="-16" y="16" type="line"/>
    </contour>
  </outline>
</glyph>
<glyph name="behDotless-ar.medi" format="2">
  <advance width="448"/>
  <anchor x="224" y="0" name="bottomDots"/>
  <anchor x="216" y="496" name="top"/>
  <anchor x="216" y="448" name="topDots"/>
  <anchor x="224" y="-8" name="bottom"/>
  <outline>
    <contour>
      <point x="72" y="0" type="curve" smooth="yes"/>
      <point x="0" y="0" type="line"/>
      <point x="-16" y="16" type="line"/>
      <point x="-16" y="92" type="line"/>
      <point x="0" y="108" type="line"/>
      <point x="72" y="108" type="line" smooth="yes"/>
      <point x="136" y="108"/>
      <point x="168" y="140"/>
      <point x="168" y="204" type="curve" smooth="yes"/>
      <point x="168" y="432" type="line"/>
      <point x="184" y="448" type="line"/>
      <point x="248" y="448" type="line"/>
      <point x="264" y="432" type="line"/>
      <point x="264" y="204" type="line" smooth="yes"/>
      <point x="264" y="140"/>
      <point x="296" y="108"/>
      <point x="360" y="108" type="curve" smooth="yes"/>
      <point x="448" y="108" type="line"/>
      <point x="448" y="0" type="line"/>
      <point x="360" y="0" type="line" smooth="yes"/>
      <point x="304" y="0"/>
      <point x="256" y="16"/>
      <point x="232" y="88" type="curve"/>
      <point x="216" y="88" type="line"/>
      <point x="192" y="16"/>
      <point x="136" y="0"/>
    </contour>
  </outline>
</glyph>
<glyph name="dal-ar.fina" format="2">
  <advance width="596"/>
  <outline>
    <contour>
      <point x="316" y="0" type="curve" smooth="yes"/>
      <point x="208" y="0" type="line" smooth="yes"/>
      <point x="80" y="0"/>
      <point x="32" y="52"/>
      <point x="32" y="180" type="curve" smooth="yes"/>
      <point x="32" y="252" type="line"/>
      <point x="48" y="268" type="line"/>
      <point x="120" y="268" type="line"/>
      <point x="136" y="252" type="line"/>
      <point x="136" y="188" type="line" smooth="yes"/>
      <point x="136" y="124"/>
      <point x="152" y="108"/>
      <point x="216" y="108" type="curve" smooth="yes"/>
      <point x="316" y="108" type="line" smooth="yes"/>
      <point x="380" y="108"/>
      <point x="396" y="124"/>
      <point x="396" y="188" type="curve" smooth="yes"/>
      <point x="396" y="304" type="line" smooth="yes"/>
      <point x="396" y="368"/>
      <point x="380" y="384"/>
      <point x="316" y="384" type="curve" smooth="yes"/>
      <point x="284" y="384" type="line"/>
      <point x="268" y="400" type="line"/>
      <point x="268" y="472" type="line"/>
      <point x="284" y="488" type="line"/>
      <point x="340" y="488" type="line" smooth="yes"/>
      <point x="444" y="488"/>
      <point x="492" y="408"/>
      <point x="492" y="304" type="curve" smooth="yes"/>
      <point x="492" y="188" type="line" smooth="yes"/>
      <point x="492" y="124"/>
      <point x="540" y="108"/>
      <point x="580" y="108" type="curve" smooth="yes"/>
      <point x="596" y="108" type="line"/>
      <point x="596" y="0" type="line"/>
      <point x="580" y="0" type="line" smooth="yes"/>
      <point x="548" y="0"/>
      <point x="488" y="16"/>
      <point x="464" y="88" type="curve"/>
      <point x="448" y="88" type="line"/>
      <point x="424" y="16"/>
      <point x="376" y="0"/>
    </contour>
  </outline>
</glyph>
<glyph name="dotabove-ar" format="2">
  <advance width="300"/>
  <anchor x="152" y="848" name="top"/>
  <anchor x="152" y="576" name="_topDots"/>
  <outline>
    <contour>
      <point x="152" y="672" type="curve" smooth="yes"/>
      <point x="196" y="672"/>
      <point x="232" y="708"/>
      <point x="232" y="752" type="curve" smooth="yes"/>
      <point x="232" y="796"/>
      <point x="196" y="832"/>
      <point x="152" y="832" type="curve" smooth="yes"/>
      <point x="108" y="832"/>
      <point x="72" y="796"/>
      <point x="72" y="752" type="curve" smooth="yes"/>
      <point x="72" y="708"/>
      <point x="108" y="672"/>
    </contour>
  </outline>
</glyph>
<glyph name="dotbelow-ar" format="2">
  <advance width="244"/>
  <anchor x="124" y="0" name="_bottomDots"/>
  <anchor x="124" y="-306" name="bottom"/>
  <outline>
    <contour>
      <point x="124" y="-256" type="curve" smooth="yes"/>
      <point x="172" y="-256"/>
      <point x="208" y="-216"/>
      <point x="208" y="-172" type="curve" smooth="yes"/>
      <point x="208" y="-124"/>
      <point x="172" y="-88"/>
      <point x="124" y="-88" type="curve" smooth="yes"/>
      <point x="80" y="-88"/>
      <point x="40" y="-124"/>
      <point x="40" y="-172" type="curve" smooth="yes"/>
      <point x="40" y="-216"/>
      <point x="80" y="-256"/>
    </contour>
  </outline>
</glyph>
<glyph name="fehDotless-ar.medi" format="2">
  <advance width="592"/>
  <anchor x="304" y="576" name="top"/>
  <anchor x="304" y="432" name="topDots"/>
  <outline>
    <contour>
      <point x="608" y="0" type="line"/>
      <point x="440" y="0" type="line" smooth="yes"/>
      <point x="392" y="0"/>
      <point x="352" y="0"/>
      <point x="308" y="48" type="curve"/>
      <point x="300" y="48" type="line"/>
      <point x="256" y="0"/>
      <point x="216" y="0"/>
      <point x="168" y="0" type="curve" smooth="yes"/>
      <point x="0" y="0" type="line"/>
      <point x="-16" y="16" type="line"/>
      <point x="-16" y="92" type="line"/>
      <point x="0" y="108" type="line"/>
      <point x="180" y="108" type="line"/>
      <point x="180" y="116" type="line"/>
      <point x="124" y="172"/>
      <point x="112" y="204"/>
      <point x="112" y="260" type="curve" smooth="yes"/>
      <point x="112" y="356"/>
      <point x="176" y="450"/>
      <point x="304" y="448" type="curve" smooth="yes"/>
      <point x="432" y="446"/>
      <point x="496" y="356"/>
      <point x="496" y="260" type="curve" smooth="yes"/>
      <point x="496" y="204"/>
      <point x="484" y="172"/>
      <point x="428" y="116" type="curve"/>
      <point x="428" y="108" type="line"/>
      <point x="608" y="108" type="line"/>
    </contour>
    <contour>
      <point x="308" y="116" type="line"/>
      <point x="360" y="146"/>
      <point x="400" y="184"/>
      <point x="400" y="244" type="curve" smooth="yes"/>
      <point x="400" y="300"/>
      <point x="360" y="340"/>
      <point x="304" y="340" type="curve" smooth="yes"/>
      <point x="248" y="340"/>
      <point x="208" y="300"/>
      <point x="208" y="244" type="curve" smooth="yes"/>
      <point x="208" y="188"/>
      <point x="248" y="146"/>
      <point x="300" y="116" type="curve"/>
    </contour>
  </outline>
</glyph>
<glyph name="hah-ar.init" format="2">
  <advance width="668"/>
  <anchor x="324" y="0" name="bottomDots"/>
  <anchor x="326" y="574" name="top"/>
  <anchor x="326" y="530" name="topDots"/>
  <anchor x="324" y="32" name="bottom"/>
  <outline>
    <contour>
      <point x="64" y="0" type="curve" smooth="yes"/>
      <point x="0" y="0" type="line"/>
      <point x="-16" y="16" type="line"/>
      <point x="-16" y="92" type="line"/>
      <point x="0" y="108" type="line"/>
      <point x="64" y="108" type="line" smooth="yes"/>
      <point x="200" y="108"/>
      <point x="252" y="214"/>
      <point x="412" y="214" type="curve" smooth="yes"/>
      <point x="476" y="214" type="line" smooth="yes"/>
      <point x="532" y="214"/>
      <point x="572" y="254"/>
      <point x="572" y="310" type="curve" smooth="yes"/>
      <point x="572" y="366"/>
      <point x="532" y="406"/>
      <point x="476" y="406" type="curve" smooth="yes"/>
      <point x="160" y="406" type="line" smooth="yes"/>
      <point x="120" y="406"/>
      <point x="96" y="382"/>
      <point x="96" y="342" type="curve" smooth="yes"/>
      <point x="96" y="326" type="line"/>
      <point x="80" y="310" type="line"/>
      <point x="16" y="310" type="line"/>
      <point x="0" y="326" type="line"/>
      <point x="0" y="342" type="line" smooth="yes"/>
      <point x="0" y="454"/>
      <point x="60" y="514"/>
      <point x="172" y="514" type="curve" smooth="yes"/>
      <point x="476" y="514" type="line" smooth="yes"/>
      <point x="588" y="514"/>
      <point x="668" y="422"/>
      <point x="668" y="310" type="curve" smooth="yes"/>
      <point x="668" y="198"/>
      <point x="588" y="106"/>
      <point x="476" y="106" type="curve" smooth="yes"/>
      <point x="412" y="106" type="line" smooth="yes"/>
      <point x="294" y="106"/>
      <point x="244" y="0"/>
    </contour>
  </outline>
</glyph>
<glyph name="heh-ar.medi" format="2">
  <advance width="434"/>
  <outline>
    <contour>
      <point x="272" y="-192" type="curve" smooth="yes"/>
      <point x="328" y="-192"/>
      <point x="368" y="-152"/>
      <point x="368" y="-96" type="curve" smooth="yes"/>
      <point x="368" y="-40"/>
      <point x="328" y="0"/>
      <point x="272" y="0" type="curve" smooth="yes"/>
      <point x="144" y="0" type="line"/>
      <point x="136" y="-6" type="line"/>
      <point x="136" y="-38" type="line" smooth="yes"/>
      <point x="136" y="-102"/>
      <point x="176" y="-192"/>
    </contour>
    <contour>
      <point x="176" y="108" type="line" smooth="yes"/>
      <point x="240" y="108"/>
      <point x="328" y="148"/>
      <point x="328" y="244" type="curve" smooth="yes"/>
      <point x="328" y="300"/>
      <point x="288" y="340"/>
      <point x="232" y="340" type="curve" smooth="yes"/>
      <point x="176" y="340"/>
      <point x="136" y="300"/>
      <point x="136" y="244" type="curve" smooth="yes"/>
      <point x="136" y="116" type="line"/>
      <point x="144" y="108" type="line"/>
    </contour>
    <contour>
      <point x="272" y="-300" type="curve" smooth="yes"/>
      <point x="112" y="-300"/>
      <point x="40" y="-166"/>
      <point x="40" y="-38" type="curve" smooth="yes"/>
      <point x="40" y="-6" type="line"/>
      <point x="32" y="0" type="line"/>
      <point x="0" y="0" type="line"/>
      <point x="-16" y="14" type="line"/>
      <point x="-16" y="92" type="line"/>
      <point x="0" y="108" type="line"/>
      <point x="32" y="108" type="line"/>
      <point x="40" y="116" type="line"/>
      <point x="40" y="244" type="line" smooth="yes"/>
      <point x="40" y="372"/>
      <point x="112" y="448"/>
      <point x="232" y="448" type="curve" smooth="yes"/>
      <point x="352" y="448"/>
      <point x="416" y="372"/>
      <point x="416" y="260" type="curve" smooth="yes"/>
      <point x="416" y="180"/>
      <point x="378" y="128"/>
      <point x="340" y="116" type="curve"/>
      <point x="340" y="108" type="line"/>
      <point x="434" y="108" type="line"/>
      <point x="434" y="0" type="line"/>
      <point x="420" y="0" type="line"/>
      <point x="420" y="-8" type="line"/>
      <point x="444" y="-24"/>
      <point x="466" y="-58"/>
      <point x="466" y="-112" type="curve" smooth="yes"/>
      <point x="466" y="-216"/>
      <point x="400" y="-300"/>
    </contour>
  </outline>
</glyph>
<glyph name="kaf-ar.fina" format="2">
  <advance width="868"/>
  <outline>
    <contour>
      <point x="884" y="16" type="line"/>
      <point x="884" y="92" type="line"/>
      <point x="868" y="108" type="line"/>
      <point x="860" y="108" type="line" smooth="yes"/>
      <point x="764" y="108"/>
      <point x="746" y="164"/>
      <point x="746" y="242" type="curve" smooth="yes"/>
      <point x="746" y="752" type="line"/>
      <point x="730" y="768" type="line"/>
      <point x="666" y="768" type="line"/>
      <point x="650" y="752" type="line"/>
      <point x="650" y="242" type="line" smooth="yes"/>
      <point x="650" y="164"/>
      <point x="634" y="108"/>
      <point x="538" y="108" type="curve" smooth="yes"/>
      <point x="222" y="108" type="line" smooth="yes"/>
      <point x="158" y="108"/>
      <point x="126" y="140"/>
      <point x="126" y="204" type="curve" smooth="yes"/>
      <point x="126" y="280" type="line"/>
      <point x="110" y="296" type="line"/>
      <point x="46" y="296" type="line"/>
      <point x="30" y="280" type="line"/>
      <point x="30" y="188" type="line" smooth="yes"/>
      <point x="30" y="60"/>
      <point x="94" y="0"/>
      <point x="222" y="0" type="curve" smooth="yes"/>
      <point x="554" y="0" type="line" smooth="yes"/>
      <point x="624" y="0"/>
      <point x="680" y="30"/>
      <point x="696" y="62" type="curve"/>
      <point x="704" y="62" type="line"/>
      <point x="726" y="30"/>
      <point x="782" y="0"/>
      <point x="844" y="0" type="curve" smooth="yes"/>
      <point x="868" y="0" type="line"/>
    </contour>
    <contour>
      <point x="264" y="196" type="line"/>
      <point x="450" y="196" type="line" smooth="yes"/>
      <point x="514" y="196"/>
      <point x="546" y="228"/>
      <point x="546" y="292" type="curve" smooth="yes"/>
      <point x="546" y="356"/>
      <point x="514" y="388"/>
      <point x="450" y="388" type="curve" smooth="yes"/>
      <point x="364" y="388" type="line" smooth="yes"/>
      <point x="346" y="388"/>
      <point x="328" y="402"/>
      <point x="328" y="420" type="curve" smooth="yes"/>
      <point x="328" y="438"/>
      <point x="346" y="452"/>
      <point x="364" y="452" type="curve" smooth="yes"/>
      <point x="442" y="452" type="line"/>
      <point x="458" y="468" type="line"/>
      <point x="458" y="500" type="line"/>
      <point x="442" y="516" type="line"/>
      <point x="364" y="516" type="line" smooth="yes"/>
      <point x="304" y="516"/>
      <point x="268" y="488"/>
      <point x="268" y="420" type="curve" smooth="yes"/>
      <point x="268" y="352"/>
      <point x="304" y="324"/>
      <point x="364" y="324" type="curve" smooth="yes"/>
      <point x="450" y="324" type="line" smooth="yes"/>
      <point x="468" y="324"/>
      <point x="482" y="310"/>
      <point x="482" y="292" type="curve" smooth="yes"/>
      <point x="482" y="274"/>
      <point x="468" y="260"/>
      <point x="450" y="260" type="curve" smooth="yes"/>
      <point x="264" y="260" type="line"/>
      <point x="248" y="244" type="line"/>
      <point x="248" y="212" type="line"/>
    </contour>
  </outline>
</glyph>
<glyph name="lam-ar.init" format="2">
  <advance width="288"/>
  <outline>
    <contour>
      <point x="0" y="0" type="line"/>
      <point x="128" y="0"/>
      <point x="192" y="76"/>
      <point x="192" y="204" type="curve" smooth="yes"/>
      <point x="192" y="752" type="line"/>
      <point x="176" y="768" type="line"/>
      <point x="112" y="768" type="line"/>
      <point x="96" y="752" type="line"/>
      <point x="96" y="204" type="line" smooth="yes"/>
      <point x="96" y="148"/>
      <point x="56" y="108"/>
      <point x="0" y="108" type="curve"/>
      <point x="-16" y="92" type="line"/>
      <point x="-16" y="16" type="line"/>
    </contour>
  </outline>
</glyph>
<glyph name="lam-ar.medi" format="2">
  <advance width="416"/>
  <outline>
    <contour>
      <point x="0" y="0" type="line"/>
      <point x="-16" y="16" type="line"/>
      <point x="-16" y="92" type="line"/>
      <point x="0" y="108" type="line"/>
      <point x="32" y="108" type="line" smooth="yes"/>
      <point x="128" y="108"/>
      <point x="160" y="144"/>
      <point x="160" y="240" type="curve" smooth="yes"/>
      <point x="160" y="752" type="line"/>
      <point x="176" y="768" type="line"/>
      <point x="240" y="768" type="line"/>
      <point x="256" y="752" type="line"/>
      <point x="256" y="240" type="line" smooth="yes"/>
      <point x="256" y="144"/>
      <point x="288" y="108"/>
      <point x="384" y="108" type="curve" smooth="yes"/>
      <point x="416" y="108" type="line"/>
      <point x="432" y="92" type="line"/>
      <point x="432" y="16" type="line"/>
      <point x="416" y="0" type="line"/>
      <point x="368" y="0" type="line" smooth="yes"/>
      <point x="288" y="0"/>
      <point x="244" y="12"/>
      <point x="216" y="88" type="curve"/>
      <point x="200" y="88" type="line"/>
      <point x="172" y="12"/>
      <point x="128" y="0"/>
      <point x="48" y="0" type="curve" smooth="yes"/>
    </contour>
  </outline>
</glyph>
<glyph name="seen-ar.init" format="2">
  <advance width="872"/>
  <anchor x="480" y="0" name="bottom"/>
  <anchor x="472" y="432" name="top"/>
  <anchor x="472" y="464" name="topDots"/>
  <outline>
    <contour>
      <point x="0" y="0" type="line"/>
      <point x="-16" y="16" type="line"/>
      <point x="-16" y="92" type="line"/>
      <point x="0" y="108" type="line"/>
      <point x="48" y="108" type="line" smooth="yes"/>
      <point x="112" y="108"/>
      <point x="136" y="146"/>
      <point x="136" y="210" type="curve" smooth="yes"/>
      <point x="136" y="416" type="line"/>
      <point x="152" y="432" type="line"/>
      <point x="216" y="432" type="line"/>
      <point x="232" y="416" type="line"/>
      <point x="232" y="188" type="line" smooth="yes"/>
      <point x="232" y="132"/>
      <point x="272" y="92"/>
      <point x="328" y="92" type="curve" smooth="yes"/>
      <point x="384" y="92"/>
      <point x="424" y="132"/>
      <point x="424" y="188" type="curve" smooth="yes"/>
      <point x="424" y="416" type="line"/>
      <point x="440" y="432" type="line"/>
      <point x="504" y="432" type="line"/>
      <point x="520" y="416" type="line"/>
      <point x="520" y="188" type="line" smooth="yes"/>
      <point x="520" y="132"/>
      <point x="560" y="92"/>
      <point x="616" y="92" type="curve" smooth="yes"/>
      <point x="672" y="92"/>
      <point x="712" y="132"/>
      <point x="712" y="188" type="curve" smooth="yes"/>
      <point x="712" y="416" type="line"/>
      <point x="728" y="432" type="line"/>
      <point x="792" y="432" type="line"/>
      <point x="808" y="416" type="line"/>
      <point x="808" y="188" type="line" smooth="yes"/>
      <point x="808" y="60"/>
      <point x="744" y="-16"/>
      <point x="616" y="-16" type="curve" smooth="yes"/>
      <point x="560" y="-16"/>
      <point x="512" y="0"/>
      <point x="488" y="72" type="curve"/>
      <point x="472" y="72" type="line"/>
      <point x="448" y="0"/>
      <point x="392" y="-16"/>
      <point x="328" y="-16" type="curve" smooth="yes"/>
      <point x="264" y="-16"/>
      <point x="192" y="16"/>
      <point x="176" y="88" type="curve"/>
      <point x="160" y="88" type="line"/>
      <point x="148" y="32"/>
      <point x="104" y="0"/>
      <point x="48" y="0" type="curve" smooth="yes"/>
    </contour>
  </outline>
</glyph>
<glyph name="threedotsupabove-ar" format="2">
  <advance width="300"/>
  <anchor x="144" y="576" name="_topDots"/>
  <anchor x="144" y="964" name="top"/>
  <outline>
    <contour>
      <point x="288" y="632" type="curve" smooth="yes"/>
      <point x="336" y="632"/>
      <point x="372" y="672"/>
      <point x="372" y="716" type="curve" smooth="yes"/>
      <point x="372" y="764"/>
      <point x="336" y="800"/>
      <point x="288" y="800" type="curve" smooth="yes"/>
      <point x="244" y="800"/>
      <point x="204" y="764"/>
      <point x="204" y="716" type="curve" smooth="yes"/>
      <point x="204" y="672"/>
      <point x="244" y="632"/>
    </contour>
    <contour>
      <point x="0" y="632" type="curve" smooth="yes"/>
      <point x="48" y="632"/>
      <point x="84" y="672"/>
      <point x="84" y="716" type="curve" smooth="yes"/>
      <point x="84" y="764"/>
      <point x="48" y="800"/>
      <point x="0" y="800" type="curve" smooth="yes"/>
      <point x="-44" y="800"/>
      <point x="-84" y="764"/>
      <point x="-84" y="716" type="curve" smooth="yes"/>
      <point x="-84" y="672"/>
      <point x="-44" y="632"/>
    </contour>
    <contour>
      <point x="144" y="864" type="curve" smooth="yes"/>
      <point x="192" y="864"/>
      <point x="228" y="904"/>
      <point x="228" y="948" type="curve" smooth="yes"/>
      <point x="228" y="996"/>
      <point x="192" y="1032"/>
      <point x="144" y="1032" type="curve" smooth="yes"/>
      <point x="100" y="1032"/>
      <point x="60" y="996"/>
      <point x="60" y="948" type="curve" smooth="yes"/>
      <point x="60" y="904"/>
      <point x="100" y="864"/>
    </contour>
  </outline>
</glyph>
<glyph name="twodotshorizontalabove-ar" format="2">
  <advance width="300"/>
  <anchor x="152" y="800" name="top"/>
  <anchor x="152" y="576" name="_topDots"/>
  <outline>
    <contour>
      <point x="296" y="664" type="curve" smooth="yes"/>
      <point x="344" y="664"/>
      <point x="380" y="704"/>
      <point x="380" y="748" type="curve" smooth="yes"/>
      <point x="380" y="796"/>
      <point x="344" y="832"/>
      <point x="296" y="832" type="curve" smooth="yes"/>
      <point x="252" y="832"/>
      <point x="212" y="796"/>
      <point x="212" y="748" type="curve" smooth="yes"/>
      <point x="212" y="704"/>
      <point x="252" y="664"/>
    </contour>
    <contour>
      <point x="8" y="664" type="curve" smooth="yes"/>
      <point x="56" y="664"/>
      <point x="92" y="704"/>
      <point x="92" y="748" type="curve" smooth="yes"/>
      <point x="92" y="796"/>
      <point x="56" y="832"/>
      <point x="8" y="832" type="curve" smooth="yes"/>
      <point x="-36" y="832"/>
      <point x="-76" y="796"/>
      <point x="-76" y="748" type="curve" smooth="yes"/>
      <point x="-76" y="704"/>
      <point x="-36" y="664"/>
    </contour>
  </outline>
</glyph>
<glyph name="yeh-ar.fina" format="2">
  <advance width="960"/>
  <outline>
    <contour>
      <point x="208" y="0" type="line" smooth="yes"/>
      <point x="80" y="0"/>
      <point x="16" y="76"/>
      <point x="16" y="204" type="curve" smooth="yes"/>
      <point x="16" y="284" type="line"/>
      <point x="32" y="300" type="line"/>
      <point x="96" y="300" type="line"/>
      <point x="112" y="284" type="line"/>
      <point x="112" y="204" type="line" smooth="yes"/>
      <point x="112" y="146"/>
      <point x="150" y="108"/>
      <point x="208" y="108" type="curve" smooth="yes"/>
      <point x="384" y="108" type="line" smooth="yes"/>
      <point x="442" y="108"/>
      <point x="480" y="146"/>
      <point x="480" y="204" type="curve" smooth="yes"/>
      <point x="480" y="244" type="line" smooth="yes"/>
      <point x="480" y="372"/>
      <point x="544" y="448"/>
      <point x="672" y="448" type="curve" smooth="yes"/>
      <point x="800" y="448"/>
      <point x="864" y="372"/>
      <point x="864" y="244" type="curve" smooth="yes"/>
      <point x="864" y="204" type="line" smooth="yes"/>
      <point x="864" y="148"/>
      <point x="904" y="108"/>
      <point x="960" y="108" type="curve"/>
      <point x="960" y="0" type="line"/>
      <point x="832" y="0"/>
      <point x="768" y="76"/>
      <point x="768" y="204" type="curve" smooth="yes"/>
      <point x="768" y="244" type="line" smooth="yes"/>
      <point x="768" y="300"/>
      <point x="728" y="340"/>
      <point x="672" y="340" type="curve" smooth="yes"/>
      <point x="616" y="340"/>
      <point x="576" y="300"/>
      <point x="576" y="244" type="curve" smooth="yes"/>
      <point x="576" y="204" type="line" smooth="yes"/>
      <point x="576" y="76"/>
      <point x="512" y="0"/>
      <point x="384" y="0" type="curve" smooth="yes"/>
    </contour>
    <contour>
      <point x="168" y="-272" type="curve" smooth="yes"/>
      <point x="212" y="-272"/>
      <point x="248" y="-236"/>
      <point x="248" y="-192" type="curve" smooth="yes"/>
      <point x="248" y="-148"/>
      <point x="212" y="-112"/>
      <point x="168" y="-112" type="curve" smooth="yes"/>
      <point x="124" y="-112"/>
      <point x="88" y="-148"/>
      <point x="88" y="-192" type="curve" smooth="yes"/>
      <point x="88" y="-236"/>
      <point x="124" y="-272"/>
    </contour>
    <contour>
      <point x="424" y="-272" type="curve" smooth="yes"/>
      <point x="468" y="-272"/>
      <point x="504" y="-236"/>
      <point x="504" y="-192" type="curve" smooth="yes"/>
      <point x="504" y="-148"/>
      <point x="468" y="-112"/>
      <point x="424" y="-112" type="curve" smooth="yes"/>
      <point x="380" y="-112"/>
      <point x="344" y="-148"/>
      <point x="344" y="-192" type="curve" smooth="yes"/>
      <point x="344" y="-236"/>
      <point x="380" y="-272"/>
    </contour>
  </outline>
</glyph>
<glyph name="yeh-ar.init" format="2">
  <advance width="228"/>
  <outline>
    <contour>
      <point x="144" y="-256" type="curve" smooth="yes"/>
      <point x="192" y="-256"/>
      <point x="228" y="-216"/>
      <point x="228" y="-172" type="curve" smooth="yes"/>
      <point x="228" y="-124"/>
      <point x="192" y="-88"/>
      <point x="144" y="-88" type="curve" smooth="yes"/>
      <point x="100" y="-88"/>
      <point x="60" y="-124"/>
      <point x="60" y="-172" type="curve" smooth="yes"/>
      <point x="60" y="-216"/>
      <point x="100" y="-256"/>
    </contour>
    <contour>
      <point x="-144" y="-256" type="curve" smooth="yes"/>
      <point x="-96" y="-256"/>
      <point x="-60" y="-216"/>
      <point x="-60" y="-172" type="curve" smooth="yes"/>
      <point x="-60" y="-124"/>
      <point x="-96" y="-88"/>
      <point x="-144" y="-88" type="curve" smooth="yes"/>
      <point x="-188" y="-88"/>
      <point x="-228" y="-124"/>
      <point x="-228" y="-172" type="curve" smooth="yes"/>
      <point x="-228" y="-216"/>
      <point x="-188" y="-256"/>
    </contour>
    <contour>
      <point x="8" y="0" type="curve" smooth="yes"/>
      <point x="0" y="0" type="line"/>
      <point x="-16" y="16" type="line"/>
      <point x="-16" y="92" type="line"/>
      <point x="0" y="108" type="line"/>
      <point x="8" y="108" type="line" smooth="yes"/>
      <point x="72" y="108"/>
      <point x="104" y="144"/>
      <point x="104" y="208" type="curve" smooth="yes"/>
      <point x="104" y="416" type="line"/>
      <point x="120" y="432" type="line"/>
      <point x="184" y="432" type="line"/>
      <point x="200" y="416" type="line"/>
      <point x="200" y="192" type="line" smooth="yes"/>
      <point x="200" y="64"/>
      <point x="152" y="0"/>
    </contour>
  </outline>
</glyph>
